<?xml version="1.0" standalone="no"?>
<!DOCTYPE svg PUBLIC "-//W3C//DTD SVG 20010904//EN"
 "http://www.w3.org/TR/2001/REC-SVG-20010904/DTD/svg10.dtd">
<svg version="1.0" xmlns="http://www.w3.org/2000/svg"
 width="300.000000pt" height="296.000000pt" viewBox="0 0 300.000000 296.000000"
 preserveAspectRatio="xMidYMid meet">
<metadata>
Created by potrace 1.10, written by Peter Selinger 2001-2011
</metadata>
<g transform="translate(0.000000,296.000000) scale(0.100000,-0.100000)"
fill="#000000" stroke="none">
<path d="M1236 2794 c-9 -22 12 -46 38 -42 15 2 21 10 21 28 0 20 -6 26 -26
28 -18 2 -29 -3 -33 -14z"/>
<path d="M2240 2722 c-22 -10 -42 -32 -54 -56 -17 -36 -18 -43 -5 -80 15 -45
66 -86 106 -86 58 0 123 64 123 120 0 38 -36 90 -75 106 -44 18 -53 18 -95 -4z
m107 -58 c20 -20 24 -31 19 -57 -18 -89 -146 -81 -146 10 0 69 76 98 127 47z"/>
<path d="M1617 2703 c-22 -15 -34 -29 -28 -31 6 -2 25 8 42 22 38 32 42 32 83
1 41 -31 51 -31 98 1 l38 27 38 -27 c41 -28 52 -32 52 -16 0 6 -6 10 -13 10
-8 0 -22 9 -32 20 -10 11 -30 20 -45 20 -15 0 -35 -9 -45 -20 -23 -25 -53 -25
-85 0 -34 27 -58 25 -103 -7z"/>
<path d="M1617 2643 c-22 -15 -34 -29 -28 -31 6 -2 25 8 42 22 37 32 37 32 79
1 43 -31 55 -31 102 1 l38 27 38 -27 c41 -28 52 -32 52 -16 0 6 -5 10 -11 10
-6 0 -22 9 -36 20 -14 11 -33 20 -43 20 -10 0 -29 -9 -43 -20 -14 -11 -36 -20
-50 -20 -13 0 -32 9 -42 20 -25 27 -53 25 -98 -7z"/>
<path d="M1895 2343 c-79 -21 -119 -114 -79 -183 49 -82 178 -80 218 4 20 42
20 67 2 109 -21 51 -87 84 -141 70z m83 -27 c48 -25 70 -88 48 -140 -38 -92
-180 -84 -205 12 -27 98 68 174 157 128z"/>
<path d="M1350 2195 c8 -36 17 -60 18 -54 5 13 -18 108 -27 113 -4 3 0 -24 9
-59z"/>
<path d="M2232 2208 c-7 -7 -12 -24 -12 -38 0 -32 17 -50 45 -50 25 0 55 29
55 53 0 38 -61 62 -88 35z"/>
<path d="M315 2133 c-29 -7 -56 -34 -72 -71 -29 -69 30 -152 109 -152 32 0 47
7 74 34 28 28 34 41 34 78 0 52 -21 85 -66 104 -34 14 -44 15 -79 7z m69 -33
c30 -11 66 -65 66 -97 0 -12 -11 -34 -24 -49 -42 -49 -133 -29 -157 34 -30 78
36 142 115 112z"/>
<path d="M1359 1844 c-14 -30 -22 -54 -19 -54 8 0 55 99 49 104 -2 2 -16 -20
-30 -50z"/>
<path d="M81 1797 c-18 -23 -2 -49 28 -45 20 2 26 8 26 28 0 29 -34 40 -54 17z"/>
<path d="M2870 1430 c-27 -27 -25 -56 5 -85 43 -44 105 -21 105 39 0 60 -68
88 -110 46z m82 -7 c36 -32 17 -83 -32 -83 -33 0 -50 17 -50 52 0 44 48 62 82
31z"/>
<path d="M450 1220 c-11 -11 -20 -31 -20 -45 0 -55 77 -87 113 -47 37 41 6
112 -48 112 -14 0 -34 -9 -45 -20z m80 -10 c11 -11 20 -27 20 -35 0 -19 -36
-55 -55 -55 -8 0 -24 9 -36 21 -22 22 -19 55 9 77 22 17 39 15 62 -8z"/>
<path d="M2941 991 c-13 -24 9 -57 33 -48 23 9 31 34 16 52 -17 20 -37 19 -49
-4z"/>
<path d="M213 869 c-42 -12 -74 -59 -75 -109 -1 -106 123 -158 196 -81 84 88
-3 225 -121 190z m96 -65 c42 -54 13 -118 -54 -118 -45 0 -75 30 -75 75 0 66
88 95 129 43z"/>
<path d="M553 829 c-31 -11 -40 -54 -18 -79 25 -27 61 -25 80 4 28 42 -15 93
-62 75z"/>
<path d="M1359 517 c-48 -32 -68 -91 -48 -142 20 -54 59 -80 121 -80 45 0 53
4 84 37 28 32 34 45 34 84 0 41 -5 51 -39 85 -32 32 -46 39 -78 39 -25 0 -53
-9 -74 -23z m118 -4 c105 -49 66 -203 -52 -203 -116 0 -148 159 -41 206 41 17
51 17 93 -3z"/>
<path d="M2483 371 c-40 -25 -53 -49 -53 -99 0 -127 173 -151 219 -30 35 92
-81 182 -166 129z m85 -20 c8 -1 27 -14 43 -30 68 -68 2 -174 -85 -137 -70 29
-89 105 -36 149 16 14 37 24 47 22 10 -2 24 -4 31 -4z"/>
<path d="M877 354 c-13 -13 -7 -52 8 -58 27 -10 46 5 43 33 -3 26 -35 41 -51
25z"/>
<path d="M1546 109 c-21 -16 -32 -29 -24 -29 8 0 27 9 41 20 14 11 34 20 45
20 10 0 27 -9 37 -20 10 -11 30 -20 45 -20 15 0 35 9 45 20 10 11 28 20 40 20
12 0 34 -9 48 -20 14 -11 31 -20 38 -20 7 0 -5 13 -27 30 -48 36 -64 37 -102
5 -17 -14 -34 -25 -39 -25 -5 0 -24 11 -43 25 -43 31 -56 31 -104 -6z"/>
<path d="M1551 50 c-24 -17 -37 -30 -29 -30 8 0 27 9 41 20 32 25 59 25 82 0
23 -26 67 -26 90 0 23 25 50 25 82 0 14 -11 33 -20 41 -20 9 0 -5 14 -30 30
-49 32 -78 31 -107 -4 -19 -22 -38 -20 -73 9 -37 32 -43 31 -97 -5z"/>
</g>
</svg>
