<svg width="113" height="108" viewBox="0 0 113 108" fill="none" xmlns="http://www.w3.org/2000/svg">
<path d="M0 93.6756C0.182769 92.9681 0.347851 92.2547 0.551256 91.5531C2.12838 86.1113 6.94229 82.2053 12.614 81.7543C12.7909 81.7395 12.9678 81.716 13.2803 81.6806V80.2479C13.2803 61.859 13.2803 43.4729 13.2803 25.084C13.2803 20.8361 14.9104 18.6016 18.9726 17.2455C21.0922 16.538 23.2058 15.8099 25.3637 15.0788C25.3637 11.7536 25.3489 8.48145 25.3696 5.21224C25.3843 2.70653 27.0115 0.628266 29.2991 0.138916C31.8697 -0.41234 34.3754 0.704911 35.3747 2.99542C35.7285 3.80904 35.8552 4.76711 35.8906 5.66621C35.9672 7.56761 35.9142 9.47195 35.9142 11.5325C38.2165 10.769 40.3714 10.0645 42.5175 9.33929C49.4037 7.0193 56.2959 4.70815 63.1704 2.35573C64.211 1.99904 64.9863 2.17591 65.7616 2.92762C70.717 7.74743 75.693 12.5495 80.6661 17.3487C82.2285 18.858 83.0156 20.668 83.0097 22.8554C82.9891 29.3643 82.995 35.8733 83.0097 42.3822C83.0097 43.3138 82.8063 44.0802 81.8571 44.4133C80.7899 44.7877 79.7494 43.9918 79.7051 42.733C79.655 41.3003 79.6904 39.8647 79.6904 38.432C79.6904 33.3204 79.6668 28.2088 79.7051 23.0971C79.7169 21.6703 79.2423 20.5531 78.2194 19.5744C74.1837 15.7126 70.1746 11.8185 66.0092 7.79754V49.0061H67.4183C76.2826 49.0061 85.144 49.0061 94.0083 49.0061C98.1206 49.0061 100.164 51.0608 100.164 55.179C100.164 63.5628 100.164 71.9496 100.164 80.3334V81.6187C101.614 81.7336 102.982 81.713 104.296 81.9665C109.228 82.9128 112.866 87.2374 112.957 92.2694C113.025 96.0928 112.999 99.9192 112.969 103.743C112.951 105.989 111.407 107.64 109.184 107.876C108.709 107.926 108.229 107.92 107.751 107.92C73.5883 107.92 39.4222 107.908 5.25904 107.949C2.71796 107.955 0.913847 107.15 0 104.71V93.6756ZM62.5808 30.5258C62.0738 30.6761 61.7584 30.7616 61.4518 30.8648C52.894 33.7419 44.3363 36.6191 35.7786 39.4962C33.1343 40.3865 30.5077 41.3298 27.834 42.1228C27.2415 42.2997 26.3512 42.1169 25.853 41.7514C25.5081 41.5008 25.3666 40.5604 25.5553 40.0976C25.7498 39.6171 26.3954 39.1897 26.9349 39.001C30.6787 37.6951 34.4461 36.4599 38.2047 35.1953C45.996 32.5746 53.7902 29.9539 61.5756 27.3126C61.9441 27.1888 62.5278 26.8734 62.5337 26.6346C62.6015 24.0051 62.5779 21.3726 62.5779 18.6428C62.1239 18.7667 61.8085 18.8345 61.5048 18.9376C54.7217 21.2193 47.9386 23.5039 41.1526 25.7856C36.7691 27.2595 32.3856 28.7335 27.9991 30.1956C26.6902 30.6319 25.7616 30.2929 25.4403 29.2936C25.1219 28.3031 25.6732 27.5013 26.985 27.0532C27.8871 26.7466 28.795 26.4489 29.7 26.1452C40.3449 22.5635 50.9897 18.976 61.6434 15.4178C62.3479 15.182 62.6427 14.8931 62.6074 14.1149C62.5396 12.6468 62.5867 11.1729 62.5867 9.70188C62.5867 8.54336 62.5867 7.38484 62.5867 6.11724C62.0237 6.28527 61.6404 6.38845 61.2661 6.51521C47.4198 11.164 33.5736 15.8129 19.7273 20.4676C17.3985 21.2517 16.5937 22.3955 16.5937 24.9012C16.5937 51.0461 16.5937 77.1939 16.5937 103.339C16.5937 103.728 16.6261 104.117 16.6438 104.536H25.3637C25.3637 100.562 25.3607 96.6677 25.3637 92.7706C25.3666 90.1558 26.3601 88.8322 28.854 88.1335C33.6266 86.7952 38.3993 85.4657 43.1719 84.1362C46.2878 83.2695 48.2865 84.8054 48.2894 88.0687C48.2953 93.142 48.2894 98.2183 48.2894 103.292C48.2894 103.69 48.2894 104.085 48.2894 104.539H62.5042V66.3014C62.1386 66.4017 61.8586 66.4636 61.5903 66.5549C56.9268 68.1203 52.2661 69.6886 47.6055 71.2539C45.4477 71.9791 43.2957 72.716 41.129 73.4058C40.1356 73.7213 39.3102 73.2791 39.0124 72.3829C38.7117 71.4868 39.1303 70.6879 40.112 70.2899C40.3508 70.1956 40.5984 70.1278 40.8431 70.0453C47.7647 67.7135 54.6805 65.3669 61.6139 63.0646C62.3804 62.8111 62.6368 62.4544 62.6015 61.6673C62.5396 60.3084 62.5838 58.9464 62.5838 57.5875C62.5838 56.5439 62.5838 55.4974 62.5838 54.3536C62.0826 54.504 61.7702 54.5865 61.4606 54.6897C53.1092 57.4931 44.7608 60.2966 36.4094 63.103C33.5559 64.061 30.72 65.0751 27.837 65.9388C27.2444 66.1157 26.3571 65.9388 25.853 65.5762C25.5052 65.3257 25.343 64.3647 25.5464 63.9284C25.7823 63.4243 26.4544 62.9909 27.0292 62.7964C33.3466 60.6297 39.6816 58.516 46.0137 56.3847C51.2314 54.6278 56.4521 52.8797 61.6611 51.0962C62.0089 50.9783 62.5307 50.6157 62.5366 50.3533C62.6015 47.7592 62.5749 45.1621 62.5749 42.4441C62.0826 42.5886 61.7377 42.677 61.4017 42.789C51.5203 46.1113 41.6419 49.4336 31.7606 52.7588C30.3692 53.2275 28.9984 53.7935 27.5716 54.106C27.0115 54.2298 26.1242 53.9615 25.7557 53.5429C25.4344 53.1774 25.4403 52.2636 25.6703 51.7624C25.8678 51.332 26.5517 51.0372 27.0823 50.8545C32.0819 49.1417 37.0963 47.4703 42.1048 45.7841C48.6108 43.5938 55.1168 41.4124 61.6139 39.1956C61.9853 39.0688 62.5278 38.6649 62.5337 38.379C62.6044 35.8143 62.5749 33.2438 62.5749 30.5228L62.5808 30.5258ZM65.9444 94.2681H90.291C90.291 93.6402 90.2674 93.0624 90.294 92.4876C90.4826 88.3074 92.3339 85.106 96.004 83.0573C96.7027 82.6681 96.8678 82.2495 96.8678 81.5155C96.8471 72.7278 96.853 63.9431 96.853 55.1554C96.853 52.9298 96.2546 52.3166 94.0643 52.3166C85.0939 52.3166 76.1234 52.3166 67.153 52.3166C66.7639 52.3166 66.3748 52.352 65.9444 52.3726V94.2651V94.2681ZM65.962 104.539H90.2026V97.7201H65.962V104.539ZM109.612 94.2858C109.948 90.6599 108.954 87.6884 105.708 85.9875C102.61 84.3632 99.4413 84.543 96.5641 86.6537C94.197 88.39 93.0591 91.668 93.7813 94.2858H109.612ZM93.6516 104.615C94.5301 104.615 95.2965 104.615 96.063 104.615C100.102 104.615 104.143 104.615 108.182 104.615C108.81 104.615 109.6 104.671 109.629 103.822C109.706 101.782 109.653 99.7394 109.653 97.7024H93.6516V104.615ZM44.9259 87.0841C42.656 87.7179 40.563 88.3016 38.5437 88.8675V104.544H44.9259V87.0841ZM35.0534 104.55V89.8286C33.0783 90.3857 31.2005 90.8662 29.3669 91.4764C29.0426 91.5855 28.7154 92.237 28.7036 92.6438C28.6447 95.2114 28.6742 97.779 28.6742 100.347C28.6742 101.729 28.6742 103.115 28.6742 104.55H35.0534ZM3.31343 97.6729C3.31343 99.6952 3.32228 101.602 3.31048 103.507C3.30459 104.323 3.74972 104.612 4.48964 104.612C5.77787 104.612 7.06315 104.612 8.35138 104.612C9.96093 104.612 11.5705 104.612 13.2066 104.612V97.67H3.31048L3.31343 97.6729ZM13.2095 94.2828V85.1208C8.42803 84.9351 3.28395 89.8227 3.53158 94.2828H13.2066H13.2095ZM28.6771 13.8555C31.2929 13.3641 32.6007 11.8745 32.6007 9.38645C32.6007 8.43134 32.6155 7.47622 32.5949 6.52405C32.5831 5.90499 32.6007 5.2653 32.4593 4.66983C32.2323 3.72945 31.3449 3.22241 30.3309 3.34917C29.3138 3.47593 28.7007 4.05666 28.6889 5.08253C28.6565 7.97736 28.6771 10.8751 28.6771 13.8555Z" fill="#E7E7E7"/>
<path d="M27.4154 78.0664C26.1832 78.0428 25.6172 77.6213 25.4197 76.8224C25.2192 76.0235 25.4963 75.2718 26.2627 74.9918C28.4589 74.184 30.6787 73.4323 32.9191 72.7631C33.6944 72.5303 34.3459 72.9931 34.6613 73.7654C34.9826 74.5525 34.7998 75.3838 34.0747 75.6727C31.7724 76.5954 29.4082 77.3619 27.4154 78.0664Z" fill="#E7E7E7"/>
<path d="M81.1732 78.5235C78.6734 78.5235 76.1765 78.5323 73.6767 78.5235C71.3685 78.5146 70.3751 77.5271 70.3603 75.2542C70.3544 74.1164 70.3397 72.9755 70.3692 71.8376C70.4134 70.178 71.4805 69.0047 73.1078 68.9929C78.5466 68.9546 83.9855 68.9576 89.4244 68.9929C90.9101 69.0018 92.0008 70.0394 92.107 71.5458C92.2101 73.008 92.2131 74.4878 92.107 75.95C91.992 77.5654 90.9042 78.494 89.218 78.5146C86.5354 78.547 83.8529 78.5235 81.1703 78.5264L81.1732 78.5235ZM88.8053 72.3535H73.7445V75.1275H88.8053V72.3535Z" fill="#E7E7E7"/>
<path d="M81.3147 56.3848C83.8498 56.3848 86.385 56.376 88.9232 56.3848C91.0427 56.3936 92.1187 57.449 92.1629 59.5567C92.1865 60.6946 92.2012 61.8355 92.157 62.9733C92.0833 64.8511 91.0398 65.9183 89.1708 65.9301C83.8793 65.9596 78.5879 65.9596 73.2934 65.9301C71.4245 65.9183 70.3927 64.8158 70.3603 62.9468C70.3397 61.7706 70.3426 60.5944 70.3603 59.4182C70.3898 57.5109 71.4716 56.4054 73.376 56.3907C76.0232 56.3671 78.6675 56.3848 81.3147 56.3848ZM73.715 62.5547H88.7876V59.7808H73.715V62.5547Z" fill="#E7E7E7"/>
<path d="M75.7313 91.2464C74.8853 91.2464 74.0392 91.2671 73.1962 91.2405C71.5424 91.1904 70.4192 90.1115 70.3721 88.4813C70.3337 87.1223 70.3308 85.7604 70.375 84.4044C70.4251 82.8626 71.4864 81.7778 73.0311 81.7307C74.8676 81.6746 76.7041 81.6776 78.5407 81.7277C80.1119 81.769 81.1761 82.8007 81.2409 84.3513C81.3029 85.7811 81.3029 87.2167 81.2351 88.6464C81.1643 90.1262 80.0765 91.161 78.5967 91.2317C77.6445 91.2759 76.6865 91.2405 75.7313 91.2405V91.2464ZM73.715 87.8741H77.8951V85.1089H73.715V87.8741Z" fill="#E7E7E7"/>
</svg>
