<svg width="120" height="108" viewBox="0 0 120 108" fill="none" xmlns="http://www.w3.org/2000/svg">
<path d="M7.26985 13.7317C7.26985 11.873 7.26015 10.066 7.26985 8.25908C7.27955 6.60081 7.95514 5.88644 9.6134 5.87351C12.4709 5.84765 15.3284 5.86704 18.3605 5.86704C18.3605 4.58051 18.3443 3.38449 18.3637 2.18847C18.3864 0.840529 19.1201 0.013013 20.2547 8.30321e-05C21.3829 -0.00961442 22.1651 0.830831 22.2233 2.14968C22.2492 2.75416 22.2298 3.35863 22.2298 3.96311C22.2298 4.52556 22.2298 5.08801 22.2298 5.80239C22.7017 5.82502 23.1219 5.86058 23.5454 5.86058C25.9633 5.86704 28.3844 5.85088 30.8023 5.86704C32.6125 5.87997 33.2719 6.54909 33.2913 8.36898C33.3107 10.1372 33.2946 11.9053 33.2946 13.848C34.9108 13.848 36.4269 13.8416 37.9429 13.848C39.9082 13.861 40.5321 14.4881 40.5483 16.4761C40.558 17.8014 40.5483 19.1235 40.5483 20.6233H42.0546C53.5041 20.6233 64.9568 20.6233 76.4062 20.6233C78.8791 20.6233 79.3801 21.1276 79.3801 23.5908C79.3801 31.6138 79.3962 39.6368 79.3607 47.6598C79.3575 48.6231 79.5773 49.1177 80.5632 49.4732C83.8603 50.6563 86.7663 52.5247 89.362 54.8812C89.6141 55.1107 90.0214 55.1656 90.3544 55.3014C90.4772 54.9491 90.7132 54.5967 90.7067 54.2476C90.6679 52.3146 90.4707 50.3751 90.5483 48.4486C90.5774 47.718 91.0138 46.7483 91.5859 46.3345C96.5187 42.7723 101.513 39.2974 106.514 35.8289C108.185 34.6685 109.73 35.4992 109.833 37.5583C109.895 38.7252 109.924 39.8922 109.976 41.0623C109.976 41.1302 110.05 41.1949 110.137 41.3468C111.427 40.5645 112.83 39.9503 114.297 40.655C115.128 41.0526 115.975 41.683 116.483 42.4329C117.759 44.3142 117.178 46.3086 114.86 48.3483C116.011 48.83 117.081 49.3052 118.17 49.7318C119.072 50.0842 119.88 50.5206 119.99 51.6067C120.09 52.6314 119.437 53.21 118.674 53.7434C113.848 57.1084 109.022 60.4734 104.225 63.8804C103.265 64.5625 102.389 64.6821 101.306 64.194C99.693 63.4634 98.0348 62.8363 96.3862 62.1898C96.0112 62.0444 95.5942 62.0088 94.8928 61.8537C95.1578 62.5034 95.2871 62.8622 95.4488 63.2048C102.195 77.5183 95.4164 94.4629 80.6246 100.152C79.6096 100.543 79.2734 101.015 79.3542 102.059C79.4512 103.301 79.3995 104.558 79.3704 105.806C79.3381 107.173 78.6301 107.862 77.2628 107.91C77.0204 107.92 76.7779 107.91 76.5355 107.91C51.9816 107.91 27.4276 107.91 2.87366 107.91C0.50102 107.91 0 107.399 0 104.985C0 75.5917 0 46.1987 0 16.8058C0 14.3555 0.513965 13.848 2.99005 13.8448C4.27981 13.8448 5.56956 13.8351 6.85932 13.8254C6.9369 13.8254 7.01447 13.7899 7.25691 13.7284L7.26985 13.7317ZM3.96948 17.7852V103.966H8.94428C8.94428 103.462 8.94428 103.026 8.94428 102.589C8.94428 95.5329 9.05741 88.4732 8.90225 81.4199C8.80851 77.1465 12.2026 74.4733 15.8198 74.5282C18.7613 74.5735 21.7061 74.5282 24.6509 74.5412C28.9792 74.5573 31.646 77.2403 31.6492 81.575C31.6525 88.5507 31.6492 95.5264 31.6492 102.505C31.6492 102.977 31.6492 103.449 31.6492 103.979H36.6014V17.7852H3.96948ZM45.8398 103.973C45.8722 103.75 45.9142 103.598 45.9142 103.443C45.9174 97.6373 45.9239 91.8317 45.9142 86.0262C45.9142 85.635 45.8205 85.2213 45.6782 84.856C43.1052 78.1712 43.1052 71.4929 45.6685 64.8017C45.8625 64.2942 45.911 63.7026 45.9142 63.1499C45.9303 57.7064 45.9239 52.2629 45.9271 46.8194C45.9271 46.4153 45.8172 45.9401 45.9918 45.6266C46.3021 45.0641 46.7061 44.3207 47.2201 44.1687C47.7955 44.0007 48.7103 44.2205 49.1628 44.6213C49.5863 44.9995 49.7608 45.8367 49.7705 46.4767C49.8287 49.7415 49.7964 53.0096 49.7996 56.2744C49.7996 56.6494 49.8449 57.0211 49.8643 57.3023C51.7262 55.7022 53.5655 54.1539 55.3498 52.5441C55.6213 52.3017 55.7474 51.7812 55.7603 51.3869C55.8056 49.6155 55.7506 47.8376 55.7991 46.0662C55.8347 44.77 56.5782 44.0168 57.6966 44.0071C58.8215 43.9942 59.5844 44.7441 59.6296 46.0242C59.6781 47.3301 59.6393 48.6425 59.6393 50.0163C61.0616 49.5314 62.2641 49.0854 63.4892 48.7104C65.4642 48.1059 65.4707 48.1253 65.6388 46.0242C65.6453 45.9434 65.6453 45.8626 65.655 45.7818C65.8263 44.6407 66.6409 43.9425 67.7205 44.0103C68.742 44.0718 69.4273 44.8023 69.4919 45.9337C69.521 46.48 69.4984 47.0327 69.4984 47.5693C71.5833 47.6954 73.497 47.8118 75.4461 47.9314V24.5637H40.6388V103.973H45.8398ZM86.6952 57.8777C80.0427 51.0636 66.657 48.4518 56.3486 56.6655C46.4669 64.5399 44.7343 79.0181 52.4826 89.0453C60.2503 99.0951 74.6251 101.099 84.7783 93.5158C95.5974 85.4346 95.9013 71.8744 91.6344 64.5399C90.5128 65.3221 89.4202 66.1367 88.2726 66.8672C87.6358 67.2713 87.5615 67.643 87.833 68.338C88.987 71.2828 89.307 74.331 88.8577 77.4763C87.7102 85.496 81.2517 91.8091 73.0638 92.8596C65.2056 93.8682 57.3895 89.3395 54.2281 81.9468C51.028 74.4668 53.2293 65.7294 59.5844 60.6706C66.0752 55.5018 74.9774 55.3402 81.7139 60.2407C82.0146 60.4572 82.5964 60.677 82.8259 60.538C84.148 59.7138 85.4054 58.786 86.6984 57.8809L86.6952 57.8777ZM12.8135 103.944H27.6927C27.7282 103.734 27.767 103.617 27.767 103.501C27.7703 96.0469 27.7864 88.5928 27.767 81.1387C27.7638 79.406 26.6745 78.4363 24.7673 78.4201C21.7869 78.3943 18.8033 78.3943 15.823 78.4201C13.7671 78.4363 12.8168 79.4222 12.8135 81.4684C12.8135 88.5604 12.8135 95.6525 12.8135 102.745V103.947V103.944ZM84.1286 69.7959C83.3916 70.3098 82.758 70.8109 82.0695 71.2149C81.284 71.6707 81.0384 72.1459 81.2129 73.148C82.5576 80.8057 75.0583 87.2028 67.6785 84.759C62.0701 82.9036 59.0898 76.8588 61.0551 71.3345C63.0367 65.765 69.2333 62.9462 74.7641 65.0829C75.1746 65.2413 75.7694 65.4449 76.0733 65.2736C77.098 64.6885 78.0322 63.9386 79.0342 63.2307C74.5249 59.6717 66.4986 59.2677 60.9743 64.6013C55.7022 69.6924 55.1785 77.8803 59.7783 83.7343C64.2456 89.4203 72.4044 90.7747 78.6043 86.8311C84.9464 82.7937 86.4948 74.9194 84.1318 69.7959H84.1286ZM77.3242 74.5832C76.3997 75.22 75.5302 75.8535 74.6251 76.4354C72.5886 77.7413 70.1546 77.3049 68.8454 75.4236C67.5427 73.552 67.992 71.0921 69.9057 69.6504C70.4326 69.2528 70.9724 68.8682 71.606 68.4027C68.978 67.9598 66.3435 69.3724 65.086 71.7709C63.751 74.3181 64.223 77.4278 66.253 79.4642C68.2474 81.4651 71.3377 81.9759 73.8396 80.7217C76.2058 79.5353 77.6895 76.9849 77.321 74.5799L77.3242 74.5832ZM11.1779 13.7478H29.338V9.83653H11.1779V13.7478ZM49.8675 103.941H55.77C55.77 101.875 55.7797 99.9097 55.7571 97.9411C55.7571 97.689 55.6569 97.356 55.4791 97.1976C53.6301 95.5685 51.7553 93.9716 49.8675 92.3457V103.937V103.941ZM94.5404 52.376C98.4517 49.6381 102.14 47.0586 105.819 44.4694C105.993 44.3465 106.181 44.1041 106.187 43.9069C106.226 42.9727 106.203 42.0353 106.203 40.7649C102.153 43.6095 98.4647 46.189 94.799 48.7977C94.5857 48.9496 94.4273 49.3181 94.4208 49.5896C94.4079 50.4268 94.4822 51.264 94.5372 52.376H94.5404ZM99.3245 59.1642C99.9322 59.4196 100.411 59.5489 100.808 59.801C101.93 60.5154 102.809 60.2116 103.831 59.4584C106.84 57.2377 109.94 55.1398 112.998 52.987C113.299 52.7736 113.577 52.5279 113.958 52.2241C113.334 51.959 112.869 51.8103 112.458 51.5711C111.433 50.9731 110.616 51.138 109.646 51.8588C106.872 53.9244 104.002 55.8574 101.17 57.8454C100.588 58.2527 100.013 58.6697 99.3213 59.161L99.3245 59.1642ZM113.276 44.6342L112.972 44.1914C99.3019 53.7725 85.6285 63.3568 71.9583 72.9378L72.2654 73.3742C85.9356 63.7932 99.6057 54.2153 113.276 44.6342ZM59.7201 103.976H65.6291C65.6291 103.32 65.6711 102.722 65.6097 102.137C65.5838 101.875 65.4061 101.474 65.2089 101.41C63.4019 100.824 61.5788 100.298 59.7169 99.7448V103.976H59.7201ZM75.4526 101.71C73.4485 101.833 71.5058 101.953 69.5727 102.072V103.947H75.4526V101.71Z" fill="#E7E7E7"/>
<path d="M20.2774 22.4368C23.8235 22.4368 27.3695 22.4271 30.9123 22.44C32.7354 22.4465 33.3819 23.1027 33.3884 24.9161C33.3981 27.292 33.3981 29.6711 33.3884 32.0469C33.3787 33.786 32.716 34.5004 30.9866 34.5036C23.8558 34.523 16.7249 34.5198 9.59407 34.5036C7.84853 34.5004 7.21496 33.8248 7.20203 32.0599C7.18587 29.684 7.1891 27.3049 7.20203 24.929C7.21173 23.0283 7.81296 22.4432 9.76215 22.4368C13.2662 22.4271 16.7734 22.4368 20.2774 22.4368ZM29.4706 26.3869H11.1457V30.5632H29.4706V26.3869Z" fill="#E7E7E7"/>
<path d="M19.5823 47.495C19.5823 48.7427 19.5953 49.9904 19.5823 51.2382C19.5597 52.8415 18.9003 53.5914 17.3422 53.6141C14.6851 53.6561 12.028 53.6561 9.37092 53.6141C7.85489 53.5882 7.21809 52.877 7.20516 51.3222C7.18576 48.7071 7.18253 46.0888 7.20516 43.4738C7.21809 41.9319 7.88075 41.2433 9.40971 41.2239C12.0668 41.1916 14.7239 41.1884 17.381 41.2239C18.8712 41.2433 19.5532 41.99 19.5791 43.5093C19.6017 44.8379 19.5856 46.1664 19.5856 47.495H19.5823ZM15.629 49.6769V45.1837H11.1326V49.6769H15.629Z" fill="#E7E7E7"/>
<path d="M33.3916 47.4141C33.3916 48.7427 33.411 50.0713 33.3851 51.3998C33.356 52.8318 32.674 53.585 31.2355 53.6108C28.5396 53.6593 25.8405 53.6593 23.1446 53.6108C21.69 53.585 21.0338 52.8609 21.0208 51.3998C21.0014 48.7427 20.9982 46.0856 21.0208 43.4285C21.0338 41.9189 21.7191 41.2336 23.2609 41.2175C25.876 41.1884 28.4944 41.1884 31.1094 41.2175C32.6836 41.2369 33.3625 41.9577 33.3851 43.5481C33.4013 44.8346 33.3883 46.1244 33.3851 47.4109L33.3916 47.4141ZM24.9548 45.1546V49.6866H29.4609V45.1546H24.9548Z" fill="#E7E7E7"/>
<path d="M7.19882 61.2395C7.19882 59.8722 7.17297 58.5016 7.20852 57.1342C7.24085 55.796 7.87764 55.0816 9.19972 55.0558C11.9764 55.004 14.7564 55.0008 17.5331 55.0558C18.8843 55.0816 19.5598 55.8413 19.576 57.2377C19.6051 59.8948 19.6051 62.5519 19.576 65.209C19.5598 66.6895 18.8228 67.4168 17.31 67.4362C14.695 67.4653 12.0766 67.4653 9.46155 67.4362C7.88087 67.42 7.22792 66.7218 7.20529 65.1088C7.18589 63.8223 7.20206 62.5325 7.20529 61.2427L7.19882 61.2395ZM11.1457 58.9832V63.4796H15.6647V58.9832H11.1457Z" fill="#E7E7E7"/>
<path d="M33.3883 61.2557C33.3883 62.5843 33.411 63.9128 33.3819 65.2414C33.3528 66.6636 32.6416 67.4104 31.2096 67.4297C28.5138 67.4685 25.8146 67.4685 23.1187 67.4297C21.7352 67.4071 21.037 66.683 21.0241 65.3157C20.9982 62.5778 20.9982 59.8399 21.0241 57.102C21.037 55.796 21.7191 55.0752 23.0444 55.0526C25.8211 55.0041 28.601 55.0041 31.3777 55.059C32.6739 55.0849 33.3463 55.8445 33.3786 57.1504C33.4142 58.5178 33.3851 59.8884 33.3851 61.2557H33.3883ZM29.4221 63.5087V59.0027H24.9871V63.5087H29.4221Z" fill="#E7E7E7"/>
<path d="M58.1007 27.9579C61.5271 27.9579 64.9568 27.9514 68.3832 27.9579C70.4068 27.9643 71.0048 28.5494 71.0145 30.5277C71.0274 32.7872 71.0306 35.0435 71.0145 37.303C71.0016 39.1552 70.3777 39.8049 68.5545 39.8049C61.5368 39.8178 54.5223 39.8178 47.5046 39.8049C45.7009 39.8049 45.0479 39.1164 45.0415 37.29C45.0318 34.9917 45.0285 32.6934 45.0415 30.3951C45.0512 28.6528 45.7074 27.9708 47.4529 27.9611C51.0022 27.9385 54.5482 27.9546 58.0975 27.9546L58.1007 27.9579ZM67.1452 35.858C67.1452 34.8592 67.087 33.9347 67.1613 33.0232C67.2422 32.0631 66.893 31.798 65.9459 31.8077C60.6738 31.8498 55.4048 31.8271 50.1326 31.8336C49.7512 31.8336 49.3698 31.8886 49.0013 31.9176V35.858H67.1452Z" fill="#E7E7E7"/>
</svg>
