<svg width="343" height="294" viewBox="0 0 343 294" fill="none" xmlns="http://www.w3.org/2000/svg">
<g style="mix-blend-mode:plus-darker" filter="url(#filter0_b_209_347)">
<rect width="343" height="294" rx="25" fill="#1B6381" fill-opacity="0.5"/>
</g>
<g clip-path="url(#clip0_209_347)">
<path d="M97.1335 49.6895V50.5949H90.1199V40.6117H96.9373V41.517H91.1744V45.065H96.2997V45.9703H91.1744V49.6895H97.1335Z" fill="#E6E6E6"/>
<path d="M111.627 43.8416C112.166 44.3799 112.436 45.1873 112.436 46.2395V50.5949H111.43V46.3374C111.43 45.5544 111.234 44.9671 110.866 44.5512C110.499 44.1352 109.959 43.9394 109.297 43.9394C108.512 43.9394 107.924 44.1841 107.458 44.649C107.016 45.1384 106.796 45.799 106.796 46.631V50.5704H105.79V46.3129C105.79 45.5299 105.594 44.9426 105.226 44.5267C104.858 44.1107 104.319 43.915 103.632 43.915C102.872 43.915 102.259 44.1597 101.817 44.6246C101.376 45.1139 101.155 45.7746 101.155 46.6065V50.5459H100.15V43.083H101.106V44.4533C101.376 43.9884 101.744 43.6458 102.21 43.4011C102.676 43.1564 103.215 43.0341 103.853 43.0341C104.49 43.0341 105.03 43.1564 105.471 43.4256C105.937 43.6948 106.281 44.0862 106.501 44.6001C106.771 44.1107 107.163 43.7192 107.678 43.4256C108.193 43.1564 108.782 43.0096 109.444 43.0096C110.376 43.0096 111.112 43.2788 111.651 43.8171L111.627 43.8416Z" fill="#E6E6E6"/>
<path d="M120.7 43.7682C121.215 44.2575 121.485 44.9916 121.485 45.9459V50.5949H120.529V49.4204C120.308 49.8119 119.965 50.1055 119.523 50.3257C119.082 50.5459 118.567 50.6438 117.954 50.6438C117.12 50.6438 116.458 50.4481 115.967 50.0321C115.477 49.6406 115.232 49.1023 115.232 48.4417C115.232 47.781 115.452 47.2916 115.918 46.9001C116.384 46.5086 117.095 46.3129 118.101 46.3129H120.48V45.848C120.48 45.2118 120.308 44.698 119.94 44.3799C119.572 44.0373 119.057 43.866 118.371 43.866C117.905 43.866 117.439 43.9394 116.997 44.1107C116.556 44.2575 116.188 44.4777 115.869 44.7714L115.403 44.0128C115.771 43.6948 116.237 43.4501 116.777 43.2543C117.316 43.083 117.856 42.9852 118.444 42.9852C119.425 42.9852 120.161 43.2299 120.676 43.7192L120.7 43.7682ZM119.572 49.4938C119.989 49.2246 120.283 48.8576 120.48 48.3682V47.1448H118.15C116.875 47.1448 116.237 47.5853 116.237 48.4906C116.237 48.931 116.409 49.2736 116.727 49.5183C117.046 49.763 117.512 49.8853 118.125 49.8853C118.738 49.8853 119.18 49.763 119.597 49.4938H119.572Z" fill="#E6E6E6"/>
<path d="M124.918 41.2234C124.771 41.0766 124.698 40.9053 124.698 40.7096C124.698 40.5138 124.771 40.3426 124.918 40.2202C125.065 40.0734 125.237 40 125.433 40C125.629 40 125.826 40.0734 125.948 40.2202C126.095 40.367 126.169 40.5138 126.169 40.7096C126.169 40.9298 126.095 41.1011 125.948 41.2479C125.801 41.3947 125.629 41.4681 125.433 41.4681C125.237 41.4681 125.041 41.3947 124.918 41.2479V41.2234ZM124.918 43.083H125.924V50.5949H124.918V43.083Z" fill="#E6E6E6"/>
<path d="M129.455 40H130.461V50.5949H129.455V40Z" fill="#E6E6E6"/>
<path d="M59.1226 108.316H58.0435V106.97C58.0435 104.499 56.0326 102.468 53.5313 102.468C51.0299 102.468 49.019 104.475 49.019 106.97V108.316H47.94C47.1062 108.316 46.4196 109.001 46.4196 109.833V118.569C46.4196 119.425 47.1062 120.11 47.94 120.11H59.098C59.9563 120.11 60.643 119.425 60.643 118.569V109.833C60.643 109.001 59.9563 108.316 59.098 108.316H59.1226ZM51.079 106.97C51.079 105.625 52.1825 104.499 53.5558 104.499C54.9291 104.499 56.0326 105.6 56.0326 106.97V108.316H51.1035V106.97H51.079ZM54.3896 116.073V118.299C54.3896 118.299 54.316 118.471 54.2179 118.471H53.1389C53.1389 118.471 52.9672 118.397 52.9672 118.299V116.073C52.2315 115.779 51.7166 115.094 51.7166 114.238C51.7166 113.161 52.5994 112.28 53.6784 112.28C54.7574 112.28 55.6403 113.161 55.6403 114.238C55.6403 115.07 55.1008 115.779 54.3896 116.073Z" fill="#E6E6E6"/>
<path d="M96.8147 107.656C97.5259 108.267 97.8937 109.099 97.8937 110.176C97.8937 111.252 97.5259 112.084 96.8147 112.672C96.1035 113.283 95.0981 113.577 93.8474 113.577H91.1744V116.733H90.1199V106.726H93.8229C95.0981 106.726 96.079 107.019 96.7902 107.631L96.8147 107.656ZM96.0545 112.011C96.5695 111.571 96.8392 110.959 96.8392 110.176C96.8392 109.393 96.5695 108.757 96.0545 108.316C95.5395 107.876 94.7793 107.656 93.7983 107.656H91.1498V112.647H93.7983C94.7793 112.647 95.5395 112.427 96.0545 111.986V112.011Z" fill="#E6E6E6"/>
<path d="M105.447 109.907C105.962 110.396 106.232 111.13 106.232 112.084V116.733H105.275V115.559C105.054 115.95 104.711 116.244 104.27 116.464C103.828 116.684 103.313 116.782 102.7 116.782C101.866 116.782 101.204 116.587 100.714 116.171C100.223 115.779 99.9781 115.241 99.9781 114.58C99.9781 113.92 100.199 113.43 100.665 113.039C101.131 112.647 101.842 112.451 102.847 112.451H105.226V111.986C105.226 111.35 105.054 110.836 104.687 110.518C104.319 110.176 103.804 110.005 103.117 110.005C102.651 110.005 102.185 110.078 101.744 110.249C101.302 110.396 100.935 110.616 100.616 110.91L100.15 110.151C100.518 109.833 100.984 109.589 101.523 109.393C102.063 109.222 102.602 109.124 103.191 109.124C104.172 109.124 104.907 109.368 105.422 109.858L105.447 109.907ZM104.319 115.632C104.736 115.363 105.03 114.996 105.226 114.507V113.283H102.896C101.621 113.283 100.984 113.724 100.984 114.629C100.984 115.07 101.155 115.412 101.474 115.657C101.793 115.901 102.259 116.024 102.872 116.024C103.485 116.024 103.926 115.901 104.343 115.632H104.319Z" fill="#E6E6E6"/>
<path d="M109.935 116.538C109.371 116.366 108.954 116.146 108.635 115.877L109.101 115.07C109.42 115.314 109.812 115.51 110.278 115.681C110.744 115.828 111.234 115.926 111.749 115.926C112.436 115.926 112.926 115.828 113.27 115.608C113.589 115.388 113.76 115.094 113.76 114.703C113.76 114.433 113.662 114.213 113.49 114.042C113.319 113.895 113.074 113.773 112.804 113.675C112.534 113.601 112.166 113.528 111.725 113.43C111.112 113.308 110.621 113.21 110.253 113.088C109.886 112.965 109.567 112.769 109.322 112.476C109.052 112.182 108.929 111.791 108.929 111.301C108.929 110.665 109.199 110.151 109.714 109.76C110.229 109.368 110.965 109.148 111.872 109.148C112.362 109.148 112.828 109.222 113.319 109.344C113.809 109.466 114.202 109.638 114.52 109.858L114.079 110.665C113.466 110.225 112.73 110.029 111.872 110.029C111.234 110.029 110.744 110.151 110.425 110.372C110.106 110.592 109.935 110.91 109.935 111.277C109.935 111.571 110.033 111.791 110.204 111.962C110.401 112.133 110.621 112.256 110.891 112.329C111.161 112.402 111.553 112.5 112.019 112.574C112.608 112.696 113.098 112.794 113.441 112.916C113.809 113.039 114.104 113.234 114.373 113.504C114.619 113.773 114.766 114.164 114.766 114.654C114.766 115.314 114.496 115.828 113.956 116.22C113.417 116.611 112.657 116.807 111.7 116.807C111.087 116.807 110.523 116.709 109.959 116.538H109.935Z" fill="#E6E6E6"/>
<path d="M117.561 116.538C116.997 116.366 116.58 116.146 116.262 115.877L116.728 115.07C117.046 115.314 117.439 115.51 117.905 115.681C118.371 115.828 118.861 115.926 119.376 115.926C120.063 115.926 120.553 115.828 120.896 115.608C121.215 115.388 121.387 115.094 121.387 114.703C121.387 114.433 121.289 114.213 121.117 114.042C120.946 113.895 120.7 113.773 120.431 113.675C120.161 113.601 119.793 113.528 119.352 113.43C118.738 113.308 118.248 113.21 117.88 113.088C117.512 112.965 117.193 112.769 116.948 112.476C116.678 112.182 116.556 111.791 116.556 111.301C116.556 110.665 116.826 110.151 117.341 109.76C117.856 109.368 118.591 109.148 119.499 109.148C119.989 109.148 120.455 109.222 120.946 109.344C121.436 109.466 121.828 109.638 122.147 109.858L121.706 110.665C121.093 110.225 120.357 110.029 119.499 110.029C118.861 110.029 118.371 110.151 118.052 110.372C117.733 110.592 117.561 110.91 117.561 111.277C117.561 111.571 117.659 111.791 117.831 111.962C118.027 112.133 118.248 112.256 118.518 112.329C118.787 112.402 119.18 112.5 119.646 112.574C120.234 112.696 120.725 112.794 121.068 112.916C121.436 113.039 121.73 113.234 122 113.504C122.245 113.773 122.392 114.164 122.392 114.654C122.392 115.314 122.123 115.828 121.583 116.22C121.044 116.611 120.283 116.807 119.327 116.807C118.714 116.807 118.15 116.709 117.586 116.538H117.561Z" fill="#E6E6E6"/>
<path d="M135.757 109.222L132.937 116.733H131.981L129.627 110.567L127.272 116.733H126.316L123.52 109.222H124.477L126.806 115.608L129.21 109.222H130.068L132.447 115.608L134.826 109.222H135.757Z" fill="#E6E6E6"/>
<path d="M138.872 116.317C138.283 115.999 137.842 115.534 137.499 114.947C137.18 114.36 137.008 113.699 137.008 112.965C137.008 112.231 137.18 111.571 137.499 110.983C137.817 110.396 138.283 109.956 138.872 109.638C139.436 109.319 140.098 109.148 140.809 109.148C141.52 109.148 142.183 109.319 142.747 109.638C143.335 109.956 143.777 110.421 144.095 110.983C144.414 111.546 144.586 112.231 144.586 112.965C144.586 113.699 144.414 114.36 144.095 114.947C143.777 115.534 143.311 115.975 142.747 116.317C142.183 116.636 141.52 116.807 140.809 116.807C140.098 116.807 139.436 116.636 138.872 116.317ZM142.232 115.534C142.648 115.29 142.992 114.947 143.213 114.507C143.458 114.066 143.556 113.552 143.556 112.99C143.556 112.427 143.433 111.913 143.213 111.473C142.967 111.032 142.648 110.69 142.232 110.445C141.815 110.2 141.324 110.078 140.809 110.078C140.294 110.078 139.804 110.2 139.387 110.445C138.97 110.69 138.627 111.032 138.406 111.473C138.161 111.913 138.038 112.427 138.038 112.99C138.038 113.552 138.161 114.066 138.406 114.507C138.651 114.947 138.97 115.29 139.387 115.534C139.804 115.779 140.294 115.901 140.809 115.901C141.324 115.901 141.815 115.779 142.232 115.534Z" fill="#E6E6E6"/>
<path d="M149.392 109.54C149.858 109.295 150.447 109.148 151.134 109.148V110.127H150.888C150.104 110.127 149.49 110.347 149.049 110.836C148.608 111.326 148.387 112.011 148.387 112.892V116.709H147.381V109.197H148.338V110.665C148.583 110.151 148.926 109.784 149.392 109.515V109.54Z" fill="#E6E6E6"/>
<path d="M160.379 106.139V116.733H159.422V115.241C159.128 115.755 158.711 116.122 158.221 116.391C157.73 116.66 157.166 116.782 156.529 116.782C155.817 116.782 155.204 116.611 154.64 116.293C154.076 115.975 153.635 115.51 153.316 114.947C152.997 114.36 152.826 113.699 152.826 112.965C152.826 112.231 152.997 111.571 153.316 110.983C153.635 110.396 154.076 109.956 154.64 109.638C155.204 109.319 155.842 109.148 156.529 109.148C157.142 109.148 157.681 109.27 158.172 109.515C158.662 109.76 159.054 110.127 159.373 110.616V106.09H160.379V106.139ZM158.024 115.559C158.441 115.314 158.785 114.972 159.005 114.531C159.251 114.091 159.373 113.577 159.373 113.014C159.373 112.451 159.251 111.938 159.005 111.497C158.76 111.057 158.441 110.714 158.024 110.469C157.608 110.225 157.142 110.102 156.602 110.102C156.063 110.102 155.597 110.225 155.18 110.469C154.763 110.714 154.42 111.057 154.199 111.497C153.954 111.938 153.831 112.451 153.831 113.014C153.831 113.577 153.954 114.091 154.199 114.531C154.444 114.972 154.763 115.314 155.18 115.559C155.597 115.804 156.087 115.926 156.602 115.926C157.117 115.926 157.583 115.804 158.024 115.559Z" fill="#E6E6E6"/>
<path d="M53.5314 46.6799L47.0327 41.6883H60.03L53.5314 46.6799Z" fill="#E6E6E6"/>
<path d="M51.2752 46.2639L46.0272 50.5459V42.2266L51.2752 46.2639Z" fill="#E6E6E6"/>
<path d="M52.1335 46.9246L53.5313 48.0012L55.0027 46.8757L60.1281 51.1087H46.9836L52.1335 46.9246Z" fill="#E6E6E6"/>
<path d="M55.861 46.215L61.0599 42.2266V50.5215L55.861 46.215Z" fill="#E6E6E6"/>
<path d="M299.376 60.4557H45.0953V61.4345H299.376V60.4557Z" fill="#E6E6E6"/>
<path d="M299.376 129.897H45.0953V130.876H299.376V129.897Z" fill="#E6E6E6"/>
<path opacity="0.5" d="M44.8501 164.374H32.1962V176.999H44.8501V164.374Z" fill="black"/>
<path d="M36.5122 174.479L33.4958 171.47L34.7956 170.148L36.5122 171.886L41.9318 166.478L43.2315 167.799L36.5122 174.479Z" fill="#B3B3B3"/>
<path d="M60.1526 174.137L58.4605 171.763C58.2643 171.763 58.0681 171.788 57.8719 171.788H55.8856V174.137H55.1008V166.723H57.8474C58.7793 166.723 59.515 166.943 60.0545 167.408C60.594 167.873 60.8638 168.484 60.8638 169.267C60.8638 169.855 60.7166 170.344 60.4224 170.735C60.1281 171.127 59.7112 171.421 59.1717 171.592L60.9619 174.137H60.1036H60.1526ZM59.5395 170.638C59.9319 170.32 60.1281 169.855 60.1281 169.267C60.1281 168.68 59.9319 168.215 59.5395 167.873C59.1472 167.555 58.6076 167.383 57.8719 167.383H55.9101V171.103H57.8719C58.6076 171.103 59.1472 170.931 59.5395 170.613V170.638Z" fill="#C7C7C7"/>
<path d="M67.4851 171.592H62.8502C62.8992 172.179 63.1199 172.644 63.5123 172.987C63.9047 173.354 64.4197 173.525 65.0327 173.525C65.3761 173.525 65.6949 173.476 65.9892 173.329C66.2834 173.207 66.5287 173.036 66.7248 172.791L67.1417 173.28C66.8965 173.574 66.5777 173.794 66.2344 173.965C65.8665 174.112 65.4496 174.21 65.0082 174.21C64.4442 174.21 63.9292 174.088 63.4878 173.843C63.0464 173.598 62.703 173.256 62.4578 172.84C62.2126 172.399 62.09 171.91 62.09 171.372C62.09 170.833 62.2126 170.344 62.4333 169.904C62.6785 169.463 62.9973 169.145 63.3897 168.9C63.8066 168.656 64.2725 168.533 64.763 168.533C65.2535 168.533 65.7439 168.656 66.1363 168.9C66.5532 169.145 66.872 169.463 67.0927 169.904C67.3134 170.32 67.436 170.809 67.436 171.372V171.616L67.4851 171.592ZM63.4633 169.683C63.0954 170.026 62.8992 170.466 62.8502 171.029H66.7739C66.7248 170.466 66.5287 170.026 66.1608 169.683C65.793 169.341 65.3515 169.17 64.812 169.17C64.2725 169.17 63.8311 169.341 63.4633 169.683Z" fill="#C7C7C7"/>
<path d="M77.6621 169.121C78.0545 169.537 78.2507 170.124 78.2507 170.907V174.137H77.515V170.98C77.515 170.393 77.3679 169.953 77.0981 169.659C76.8283 169.365 76.436 169.194 75.921 169.194C75.357 169.194 74.891 169.365 74.5722 169.732C74.2534 170.099 74.0818 170.589 74.0818 171.2V174.137H73.3461V170.98C73.3461 170.393 73.1989 169.953 72.9292 169.659C72.6594 169.365 72.267 169.194 71.7521 169.194C71.188 169.194 70.7221 169.365 70.4033 169.732C70.06 170.099 69.9128 170.589 69.9128 171.2V174.137H69.1771V168.558H69.8883V169.585C70.0845 169.243 70.3542 168.974 70.6976 168.802C71.0409 168.631 71.4578 168.533 71.8992 168.533C72.3406 168.533 72.7575 168.631 73.1008 168.827C73.4442 169.023 73.6894 169.316 73.861 169.708C74.0572 169.341 74.3515 169.047 74.7439 168.851C75.1363 168.656 75.5531 168.533 76.0436 168.533C76.7303 168.533 77.2698 168.729 77.6867 169.145L77.6621 169.121Z" fill="#C7C7C7"/>
<path d="M85.2398 171.592H80.6049C80.654 172.179 80.8747 172.644 81.2671 172.987C81.6594 173.354 82.1744 173.525 82.7875 173.525C83.1308 173.525 83.4496 173.476 83.7439 173.329C84.0382 173.207 84.2834 173.036 84.4796 172.791L84.8965 173.28C84.6513 173.574 84.3325 173.794 83.9891 173.965C83.6213 174.112 83.2044 174.21 82.763 174.21C82.199 174.21 81.684 174.088 81.2425 173.843C80.8011 173.598 80.4578 173.256 80.2126 172.84C79.9673 172.399 79.8447 171.91 79.8447 171.372C79.8447 170.833 79.9673 170.344 80.188 169.904C80.4333 169.463 80.7521 169.145 81.1445 168.9C81.5613 168.656 82.0273 168.533 82.5178 168.533C83.0082 168.533 83.4987 168.656 83.891 168.9C84.3079 169.145 84.6267 169.463 84.8474 169.904C85.0682 170.32 85.1908 170.809 85.1908 171.372V171.616L85.2398 171.592ZM81.218 169.683C80.8502 170.026 80.654 170.466 80.6049 171.029H84.5286C84.4796 170.466 84.2834 170.026 83.9156 169.683C83.5477 169.341 83.1063 169.17 82.5668 169.17C82.0273 169.17 81.5859 169.341 81.218 169.683Z" fill="#C7C7C7"/>
<path d="M95.4169 169.121C95.8093 169.537 96.0055 170.124 96.0055 170.907V174.137H95.2698V170.98C95.2698 170.393 95.1226 169.953 94.8529 169.659C94.5831 169.365 94.1907 169.194 93.6758 169.194C93.1117 169.194 92.6458 169.365 92.327 169.732C92.0082 170.099 91.8365 170.589 91.8365 171.2V174.137H91.1008V170.98C91.1008 170.393 90.9537 169.953 90.6839 169.659C90.4142 169.365 90.0218 169.194 89.5068 169.194C88.9428 169.194 88.4768 169.365 88.158 169.732C87.8147 170.099 87.6676 170.589 87.6676 171.2V174.137H86.9319V168.558H87.6431V169.585C87.8392 169.243 88.109 168.974 88.4523 168.802C88.7956 168.631 89.2125 168.533 89.654 168.533C90.0954 168.533 90.5123 168.631 90.8556 168.827C91.1989 169.023 91.4441 169.316 91.6158 169.708C91.812 169.341 92.1063 169.047 92.4986 168.851C92.891 168.656 93.3079 168.533 93.7984 168.533C94.485 168.533 95.0245 168.729 95.4414 169.145L95.4169 169.121Z" fill="#C7C7C7"/>
<path d="M102.406 168.876C102.823 169.121 103.166 169.439 103.387 169.879C103.632 170.32 103.755 170.809 103.755 171.347C103.755 171.886 103.632 172.399 103.387 172.815C103.142 173.256 102.823 173.574 102.406 173.819C101.989 174.063 101.523 174.186 101.008 174.186C100.542 174.186 100.125 174.088 99.7575 173.892C99.3896 173.696 99.0953 173.403 98.8746 173.036V174.137H98.1635V166.282H98.8991V169.634C99.1199 169.267 99.4387 168.998 99.782 168.802C100.15 168.607 100.542 168.533 101.008 168.533C101.523 168.533 101.989 168.656 102.406 168.9V168.876ZM101.989 173.256C102.308 173.084 102.553 172.815 102.725 172.497C102.896 172.155 102.995 171.788 102.995 171.372C102.995 170.956 102.896 170.564 102.725 170.246C102.553 169.904 102.308 169.659 101.989 169.488C101.67 169.316 101.327 169.218 100.935 169.218C100.542 169.218 100.199 169.316 99.8801 169.488C99.5613 169.659 99.316 169.928 99.1444 170.246C98.9727 170.589 98.8746 170.956 98.8746 171.372C98.8746 171.788 98.9727 172.179 99.1444 172.497C99.316 172.84 99.5613 173.084 99.8801 173.256C100.199 173.427 100.542 173.525 100.935 173.525C101.327 173.525 101.67 173.427 101.989 173.256Z" fill="#C7C7C7"/>
<path d="M110.18 171.592H105.545C105.594 172.179 105.815 172.644 106.207 172.987C106.6 173.354 107.114 173.525 107.728 173.525C108.071 173.525 108.39 173.476 108.684 173.329C108.978 173.207 109.223 173.036 109.42 172.791L109.837 173.28C109.591 173.574 109.273 173.794 108.929 173.965C108.561 174.112 108.144 174.21 107.703 174.21C107.139 174.21 106.624 174.088 106.183 173.843C105.741 173.598 105.398 173.256 105.153 172.84C104.907 172.399 104.785 171.91 104.785 171.372C104.785 170.833 104.907 170.344 105.128 169.904C105.373 169.463 105.692 169.145 106.085 168.9C106.501 168.656 106.967 168.533 107.458 168.533C107.948 168.533 108.439 168.656 108.831 168.9C109.248 169.145 109.567 169.463 109.788 169.904C110.008 170.32 110.131 170.809 110.131 171.372V171.616L110.18 171.592ZM106.158 169.683C105.79 170.026 105.594 170.466 105.545 171.029H109.469C109.42 170.466 109.223 170.026 108.856 169.683C108.488 169.341 108.046 169.17 107.507 169.17C106.967 169.17 106.526 169.341 106.158 169.683Z" fill="#C7C7C7"/>
<path d="M113.319 168.802C113.662 168.607 114.104 168.509 114.619 168.509V169.243H114.447C113.858 169.243 113.417 169.414 113.074 169.781C112.755 170.148 112.583 170.638 112.583 171.298V174.137H111.847V168.558H112.559V169.659C112.73 169.292 113 168.998 113.343 168.802H113.319Z" fill="#C7C7C7"/>
<path d="M127.542 169.121C127.935 169.537 128.131 170.124 128.131 170.907V174.137H127.395V170.98C127.395 170.393 127.248 169.953 126.978 169.659C126.708 169.365 126.316 169.194 125.801 169.194C125.237 169.194 124.771 169.365 124.452 169.732C124.134 170.099 123.962 170.589 123.962 171.2V174.137H123.226V170.98C123.226 170.393 123.079 169.953 122.809 169.659C122.54 169.365 122.147 169.194 121.632 169.194C121.068 169.194 120.602 169.365 120.283 169.732C119.94 170.099 119.793 170.589 119.793 171.2V174.137H119.057V168.558H119.768V169.585C119.965 169.243 120.234 168.974 120.578 168.802C120.921 168.631 121.338 168.533 121.779 168.533C122.221 168.533 122.638 168.631 122.981 168.827C123.324 169.023 123.57 169.316 123.741 169.708C123.937 169.341 124.232 169.047 124.624 168.851C125.016 168.656 125.433 168.533 125.924 168.533C126.61 168.533 127.15 168.729 127.567 169.145L127.542 169.121Z" fill="#C7C7C7"/>
<path d="M135.12 171.592H130.485C130.534 172.179 130.755 172.644 131.147 172.987C131.54 173.354 132.055 173.525 132.668 173.525C133.011 173.525 133.33 173.476 133.624 173.329C133.918 173.207 134.164 173.036 134.36 172.791L134.777 173.28C134.531 173.574 134.213 173.794 133.869 173.965C133.501 174.112 133.085 174.21 132.643 174.21C132.079 174.21 131.564 174.088 131.123 173.843C130.681 173.598 130.338 173.256 130.093 172.84C129.847 172.399 129.725 171.91 129.725 171.372C129.725 170.833 129.847 170.344 130.068 169.904C130.313 169.463 130.632 169.145 131.025 168.9C131.441 168.656 131.907 168.533 132.398 168.533C132.888 168.533 133.379 168.656 133.771 168.9C134.188 169.145 134.507 169.463 134.728 169.904C134.948 170.32 135.071 170.809 135.071 171.372V171.616L135.12 171.592ZM131.098 169.683C130.73 170.026 130.534 170.466 130.485 171.029H134.409C134.36 170.466 134.164 170.026 133.796 169.683C133.428 169.341 132.986 169.17 132.447 169.17C131.907 169.17 131.466 169.341 131.098 169.683Z" fill="#C7C7C7"/>
<path d="M216.708 167.383L216.12 170.295H219.945L219.798 170.98H215.973L215.36 174.137H214.599L216.071 166.723H221.123L220.975 167.408H216.684L216.708 167.383Z" fill="#C7C7C7"/>
<path d="M222.153 173.892C221.785 173.696 221.49 173.427 221.27 173.06C221.074 172.693 220.951 172.277 220.951 171.812C220.951 171.176 221.098 170.613 221.368 170.124C221.638 169.61 222.03 169.218 222.52 168.949C223.011 168.656 223.55 168.509 224.163 168.509C224.924 168.509 225.537 168.729 226.003 169.145C226.444 169.561 226.689 170.148 226.689 170.858C226.689 171.494 226.542 172.057 226.272 172.571C226.003 173.084 225.61 173.476 225.12 173.77C224.629 174.063 224.09 174.21 223.477 174.21C222.962 174.21 222.52 174.112 222.153 173.916V173.892ZM224.752 173.182C225.12 172.962 225.414 172.644 225.61 172.253C225.807 171.861 225.929 171.396 225.929 170.907C225.929 170.368 225.757 169.928 225.439 169.634C225.12 169.316 224.678 169.17 224.09 169.17C223.624 169.17 223.232 169.292 222.864 169.512C222.496 169.732 222.202 170.05 222.005 170.442C221.809 170.833 221.687 171.298 221.687 171.788C221.687 172.326 221.834 172.766 222.153 173.06C222.471 173.354 222.913 173.525 223.501 173.525C223.967 173.525 224.36 173.403 224.727 173.182H224.752Z" fill="#C7C7C7"/>
<path d="M230.27 168.778C230.637 168.607 231.079 168.509 231.618 168.509L231.471 169.243H231.251C230.662 169.243 230.172 169.414 229.779 169.757C229.387 170.099 229.142 170.613 228.994 171.298L228.43 174.137H227.695L228.798 168.558H229.509L229.313 169.585C229.558 169.218 229.877 168.949 230.245 168.778H230.27Z" fill="#C7C7C7"/>
<path d="M238.142 168.558L237.185 173.452C236.989 174.43 236.646 175.14 236.106 175.58C235.591 176.021 234.856 176.241 233.948 176.241C233.433 176.241 232.967 176.168 232.55 176.021C232.133 175.874 231.79 175.678 231.496 175.409L231.937 174.846C232.158 175.091 232.452 175.262 232.82 175.385C233.188 175.507 233.58 175.58 234.022 175.58C234.708 175.58 235.248 175.409 235.64 175.091C236.033 174.773 236.278 174.259 236.425 173.574L236.548 172.962C236.278 173.256 235.959 173.5 235.591 173.672C235.223 173.843 234.806 173.916 234.341 173.916C233.605 173.916 233.016 173.721 232.575 173.305C232.133 172.913 231.913 172.35 231.913 171.665C231.913 171.078 232.06 170.54 232.33 170.05C232.599 169.561 232.967 169.194 233.458 168.925C233.948 168.656 234.488 168.509 235.076 168.509C235.591 168.509 236.057 168.607 236.425 168.827C236.793 169.047 237.063 169.365 237.234 169.781L237.455 168.558H238.166H238.142ZM235.714 172.938C236.082 172.717 236.376 172.424 236.572 172.057C236.768 171.69 236.891 171.274 236.891 170.784C236.891 170.271 236.719 169.879 236.4 169.585C236.082 169.292 235.64 169.145 235.052 169.145C234.586 169.145 234.169 169.243 233.801 169.463C233.433 169.683 233.139 169.977 232.943 170.344C232.747 170.711 232.624 171.151 232.624 171.616C232.624 172.13 232.796 172.522 233.114 172.815C233.433 173.109 233.875 173.256 234.463 173.256C234.929 173.256 235.321 173.158 235.689 172.938H235.714Z" fill="#C7C7C7"/>
<path d="M240.373 173.892C240.005 173.696 239.711 173.427 239.49 173.06C239.294 172.693 239.172 172.277 239.172 171.812C239.172 171.176 239.319 170.613 239.589 170.124C239.858 169.61 240.251 169.218 240.741 168.949C241.232 168.68 241.771 168.509 242.384 168.509C243.144 168.509 243.757 168.729 244.223 169.145C244.665 169.561 244.91 170.148 244.91 170.858C244.91 171.494 244.763 172.057 244.493 172.571C244.223 173.084 243.831 173.476 243.341 173.77C242.85 174.063 242.311 174.21 241.698 174.21C241.183 174.21 240.741 174.112 240.373 173.916V173.892ZM242.973 173.182C243.341 172.962 243.635 172.644 243.831 172.253C244.027 171.861 244.15 171.396 244.15 170.907C244.15 170.368 243.978 169.928 243.659 169.634C243.341 169.316 242.899 169.17 242.311 169.17C241.845 169.17 241.452 169.292 241.084 169.512C240.717 169.732 240.422 170.05 240.226 170.442C240.03 170.833 239.907 171.298 239.907 171.788C239.907 172.326 240.054 172.766 240.373 173.06C240.692 173.354 241.133 173.525 241.722 173.525C242.188 173.525 242.58 173.403 242.948 173.182H242.973Z" fill="#C7C7C7"/>
<path d="M247.142 172.448C247.117 172.62 247.093 172.742 247.093 172.791C247.093 173.28 247.362 173.525 247.902 173.525C248.221 173.525 248.49 173.427 248.76 173.231L248.932 173.794C248.613 174.039 248.196 174.161 247.706 174.161C247.289 174.161 246.97 174.039 246.725 173.819C246.48 173.598 246.357 173.28 246.357 172.889C246.357 172.742 246.357 172.595 246.406 172.448L247.044 169.17H246.063L246.185 168.533H247.166L247.411 167.31H248.147L247.902 168.533H249.594L249.471 169.17H247.779L247.142 172.424V172.448Z" fill="#C7C7C7"/>
<path d="M259.379 167.261C259.845 167.628 260.065 168.142 260.065 168.802C260.065 169.757 259.771 170.491 259.158 171.005C258.545 171.518 257.711 171.788 256.657 171.788H254.572L254.106 174.137H253.346L254.817 166.723H257.466C258.3 166.723 258.937 166.918 259.403 167.285L259.379 167.261ZM258.618 170.54C259.084 170.173 259.305 169.61 259.305 168.876C259.305 168.387 259.133 168.019 258.815 167.775C258.496 167.53 258.005 167.383 257.392 167.383H255.455L254.719 171.103H256.681C257.515 171.103 258.177 170.907 258.618 170.54Z" fill="#C7C7C7"/>
<path d="M266.834 168.558L265.73 174.137H265.019L265.191 173.256C264.921 173.549 264.602 173.77 264.234 173.941C263.866 174.112 263.474 174.186 263.033 174.186C262.567 174.186 262.15 174.088 261.782 173.892C261.414 173.696 261.144 173.427 260.924 173.06C260.727 172.693 260.629 172.277 260.629 171.812C260.629 171.176 260.777 170.613 261.022 170.124C261.292 169.61 261.659 169.218 262.15 168.949C262.616 168.656 263.155 168.509 263.744 168.509C264.259 168.509 264.7 168.607 265.068 168.827C265.436 169.047 265.681 169.341 265.853 169.732L266.074 168.558H266.809H266.834ZM264.43 173.182C264.798 172.962 265.093 172.644 265.289 172.253C265.485 171.861 265.608 171.396 265.608 170.907C265.608 170.368 265.436 169.928 265.117 169.634C264.798 169.316 264.357 169.17 263.768 169.17C263.302 169.17 262.91 169.292 262.542 169.512C262.174 169.732 261.88 170.05 261.684 170.442C261.488 170.833 261.365 171.298 261.365 171.788C261.365 172.326 261.512 172.766 261.831 173.06C262.15 173.354 262.591 173.525 263.18 173.525C263.646 173.525 264.038 173.403 264.406 173.182H264.43Z" fill="#C7C7C7"/>
<path d="M268.256 173.99C267.864 173.867 267.545 173.696 267.324 173.5L267.692 172.913C267.913 173.109 268.183 173.256 268.526 173.354C268.869 173.476 269.237 173.525 269.605 173.525C270.12 173.525 270.537 173.427 270.831 173.256C271.125 173.084 271.248 172.84 271.248 172.522C271.248 172.35 271.199 172.204 271.076 172.106C270.954 172.008 270.831 171.91 270.659 171.861C270.488 171.812 270.242 171.739 269.924 171.665C269.531 171.592 269.237 171.494 268.992 171.421C268.747 171.347 268.55 171.2 268.379 171.029C268.207 170.833 268.133 170.589 268.133 170.271C268.133 169.732 268.354 169.316 268.796 168.998C269.237 168.68 269.801 168.533 270.537 168.533C270.905 168.533 271.248 168.582 271.591 168.68C271.935 168.778 272.204 168.9 272.425 169.047L272.106 169.659C271.886 169.512 271.64 169.39 271.371 169.292C271.076 169.218 270.807 169.17 270.488 169.17C269.973 169.17 269.58 169.267 269.311 169.439C269.041 169.61 268.894 169.879 268.894 170.173C268.894 170.368 268.943 170.515 269.065 170.613C269.188 170.736 269.335 170.809 269.507 170.858C269.678 170.907 269.924 170.98 270.242 171.029C270.61 171.103 270.929 171.2 271.174 171.274C271.42 171.347 271.616 171.494 271.787 171.665C271.959 171.861 272.033 172.106 272.033 172.399C272.033 172.938 271.812 173.378 271.371 173.672C270.929 173.99 270.341 174.137 269.58 174.137C269.139 174.137 268.722 174.063 268.305 173.941L268.256 173.99Z" fill="#C7C7C7"/>
<path d="M273.504 173.99C273.112 173.867 272.793 173.696 272.572 173.5L272.94 172.913C273.161 173.109 273.43 173.256 273.774 173.354C274.117 173.476 274.485 173.525 274.853 173.525C275.368 173.525 275.785 173.427 276.079 173.256C276.373 173.084 276.496 172.84 276.496 172.522C276.496 172.35 276.447 172.204 276.324 172.106C276.202 172.008 276.079 171.91 275.907 171.861C275.736 171.812 275.49 171.739 275.172 171.665C274.779 171.592 274.485 171.494 274.24 171.421C273.994 171.347 273.798 171.2 273.627 171.029C273.455 170.833 273.381 170.589 273.381 170.271C273.381 169.732 273.602 169.316 274.044 168.998C274.485 168.68 275.049 168.533 275.785 168.533C276.153 168.533 276.496 168.582 276.839 168.68C277.183 168.778 277.452 168.9 277.673 169.047L277.354 169.659C277.133 169.512 276.888 169.39 276.618 169.292C276.349 169.194 276.054 169.17 275.736 169.17C275.221 169.17 274.828 169.267 274.559 169.439C274.289 169.61 274.142 169.879 274.142 170.173C274.142 170.368 274.191 170.515 274.313 170.613C274.436 170.736 274.583 170.809 274.755 170.858C274.926 170.907 275.172 170.98 275.49 171.029C275.858 171.103 276.177 171.2 276.398 171.274C276.643 171.347 276.839 171.494 277.011 171.665C277.183 171.861 277.256 172.106 277.256 172.399C277.256 172.938 277.035 173.378 276.594 173.672C276.153 173.99 275.564 174.137 274.804 174.137C274.362 174.137 273.945 174.063 273.529 173.941L273.504 173.99Z" fill="#C7C7C7"/>
<path d="M287.58 168.558L284.466 174.137H283.73L282.798 169.585L280.223 174.137H279.512L278.433 168.558H279.12L280.003 173.28L282.676 168.558H283.313L284.245 173.28L286.869 168.558H287.605H287.58Z" fill="#C7C7C7"/>
<path d="M288.635 173.892C288.267 173.696 287.973 173.427 287.752 173.06C287.556 172.693 287.433 172.277 287.433 171.812C287.433 171.176 287.58 170.613 287.85 170.124C288.12 169.61 288.512 169.218 289.003 168.949C289.493 168.656 290.033 168.509 290.646 168.509C291.406 168.509 292.019 168.729 292.485 169.145C292.926 169.561 293.172 170.148 293.172 170.858C293.172 171.494 293.024 172.057 292.755 172.571C292.485 173.084 292.092 173.476 291.602 173.77C291.112 174.063 290.572 174.21 289.959 174.21C289.444 174.21 289.003 174.112 288.635 173.916V173.892ZM291.234 173.182C291.602 172.962 291.896 172.644 292.093 172.253C292.289 171.861 292.411 171.396 292.411 170.907C292.411 170.368 292.24 169.928 291.921 169.634C291.602 169.316 291.161 169.17 290.572 169.17C290.106 169.17 289.714 169.292 289.346 169.512C288.978 169.732 288.684 170.05 288.488 170.442C288.291 170.833 288.169 171.298 288.169 171.788C288.169 172.326 288.316 172.766 288.635 173.06C288.954 173.354 289.395 173.525 289.984 173.525C290.449 173.525 290.842 173.403 291.21 173.182H291.234Z" fill="#C7C7C7"/>
<path d="M296.752 168.778C297.12 168.607 297.561 168.509 298.101 168.509L297.954 169.243H297.733C297.144 169.243 296.654 169.414 296.261 169.757C295.869 170.099 295.624 170.613 295.477 171.298L294.913 174.137H294.177L295.281 168.558H295.992L295.796 169.585C296.041 169.218 296.36 168.949 296.727 168.778H296.752Z" fill="#C7C7C7"/>
<path d="M304.992 166.282L303.447 174.137H302.736L302.907 173.256C302.638 173.549 302.319 173.77 301.951 173.941C301.583 174.112 301.191 174.186 300.749 174.186C300.283 174.186 299.866 174.088 299.499 173.892C299.131 173.696 298.861 173.427 298.64 173.06C298.444 172.693 298.346 172.277 298.346 171.812C298.346 171.176 298.493 170.613 298.738 170.124C299.008 169.61 299.376 169.218 299.866 168.949C300.332 168.656 300.872 168.509 301.46 168.509C301.975 168.509 302.417 168.607 302.785 168.827C303.152 169.047 303.398 169.341 303.569 169.732L304.256 166.282H304.992ZM302.123 173.207C302.49 172.987 302.785 172.669 302.981 172.277C303.177 171.886 303.3 171.421 303.3 170.931C303.3 170.393 303.128 169.953 302.809 169.659C302.49 169.341 302.049 169.194 301.46 169.194C300.994 169.194 300.602 169.316 300.234 169.537C299.866 169.757 299.572 170.075 299.376 170.466C299.18 170.858 299.057 171.323 299.057 171.812C299.057 172.35 299.204 172.791 299.523 173.084C299.842 173.378 300.283 173.549 300.872 173.549C301.338 173.549 301.73 173.427 302.098 173.207H302.123Z" fill="#C7C7C7"/>
<path d="M307.787 171.151C307.934 170.931 308.082 170.735 308.253 170.589C308.425 170.442 308.646 170.271 308.915 170.05C309.185 169.855 309.381 169.708 309.528 169.561C309.676 169.439 309.798 169.267 309.896 169.072C309.994 168.876 310.043 168.656 310.043 168.411C310.043 168.068 309.921 167.799 309.651 167.604C309.406 167.408 309.038 167.31 308.548 167.31C308.057 167.31 307.689 167.383 307.321 167.53C306.978 167.677 306.659 167.897 306.414 168.166L305.924 167.701C306.242 167.359 306.61 167.09 307.076 166.918C307.542 166.723 308.057 166.649 308.67 166.649C309.332 166.649 309.872 166.796 310.264 167.09C310.657 167.383 310.853 167.775 310.853 168.289C310.853 168.631 310.804 168.925 310.681 169.17C310.558 169.414 310.411 169.61 310.24 169.781C310.068 169.953 309.823 170.124 309.528 170.344C309.161 170.613 308.891 170.858 308.67 171.054C308.474 171.274 308.327 171.543 308.253 171.886H307.469C307.518 171.592 307.616 171.347 307.763 171.127L307.787 171.151ZM307.15 174.039C307.15 174.039 307.003 173.819 307.003 173.672C307.003 173.5 307.052 173.378 307.174 173.256C307.272 173.158 307.419 173.084 307.567 173.084C307.714 173.084 307.836 173.133 307.934 173.231C308.033 173.329 308.082 173.452 308.082 173.598C308.082 173.77 308.033 173.892 307.91 174.014C307.812 174.137 307.665 174.186 307.493 174.186C307.346 174.186 307.223 174.137 307.125 174.039H307.15Z" fill="#C7C7C7"/>
<g style="mix-blend-mode:color-burn">
<path d="M305.36 212.136H37.6403C29.5547 212.136 23 218.676 23 226.744V246.392C23 254.46 29.5547 261 37.6403 261H305.36C313.445 261 320 254.46 320 246.392V226.744C320 218.676 313.445 212.136 305.36 212.136Z" fill="#CCCCCC"/>
</g>
<path d="M147.185 232.494H148.853V240.128H153.537V241.548H147.185V232.494Z" fill="white"/>
<path d="M158.098 241.083C157.362 240.691 156.774 240.128 156.357 239.419C155.94 238.709 155.719 237.902 155.719 237.021C155.719 236.14 155.94 235.357 156.357 234.647C156.774 233.938 157.362 233.375 158.098 232.984C158.834 232.592 159.668 232.372 160.575 232.372C161.482 232.372 162.316 232.568 163.052 232.984C163.787 233.375 164.376 233.938 164.793 234.647C165.21 235.357 165.431 236.14 165.431 237.045C165.431 237.951 165.21 238.734 164.793 239.443C164.376 240.153 163.787 240.716 163.052 241.107C162.316 241.499 161.482 241.719 160.575 241.719C159.668 241.719 158.834 241.523 158.098 241.107V241.083ZM162.193 239.81C162.659 239.541 163.052 239.15 163.322 238.66C163.591 238.171 163.738 237.633 163.738 237.021C163.738 236.409 163.591 235.871 163.322 235.381C163.052 234.892 162.659 234.525 162.193 234.256C161.703 233.987 161.164 233.84 160.575 233.84C159.986 233.84 159.447 233.987 158.956 234.256C158.466 234.525 158.098 234.917 157.828 235.381C157.559 235.871 157.411 236.409 157.411 237.021C157.411 237.633 157.559 238.171 157.828 238.66C158.098 239.15 158.49 239.517 158.956 239.81C159.447 240.079 159.986 240.226 160.575 240.226C161.164 240.226 161.703 240.079 162.193 239.81Z" fill="white"/>
<path d="M174.97 236.923H176.54V240.52C176.074 240.887 175.534 241.18 174.921 241.376C174.308 241.572 173.67 241.67 173.033 241.67C172.125 241.67 171.292 241.474 170.556 241.058C169.82 240.667 169.232 240.104 168.815 239.394C168.398 238.685 168.177 237.902 168.177 236.996C168.177 236.091 168.398 235.308 168.815 234.598C169.232 233.889 169.82 233.326 170.556 232.935C171.292 232.543 172.125 232.323 173.057 232.323C173.817 232.323 174.504 232.445 175.117 232.69C175.73 232.935 176.245 233.302 176.662 233.791L175.608 234.819C174.921 234.134 174.087 233.791 173.131 233.791C172.493 233.791 171.929 233.913 171.439 234.182C170.948 234.452 170.556 234.819 170.286 235.308C170.016 235.797 169.869 236.336 169.869 236.972C169.869 237.608 170.016 238.122 170.286 238.611C170.556 239.101 170.948 239.468 171.439 239.737C171.929 240.006 172.493 240.153 173.106 240.153C173.817 240.153 174.431 240.006 174.946 239.688V236.874L174.97 236.923Z" fill="white"/>
<path d="M180.414 232.494H182.082V241.548H180.414V232.494Z" fill="white"/>
<path d="M194.147 232.494V241.548H192.774L187.82 235.43V241.548H186.177V232.494H187.55L192.504 238.611V232.494H194.147Z" fill="white"/>
</g>
<defs>
<filter id="filter0_b_209_347" x="-4" y="-4" width="351" height="302" filterUnits="userSpaceOnUse" color-interpolation-filters="sRGB">
<feFlood flood-opacity="0" result="BackgroundImageFix"/>
<feGaussianBlur in="BackgroundImageFix" stdDeviation="2"/>
<feComposite in2="SourceAlpha" operator="in" result="effect1_backgroundBlur_209_347"/>
<feBlend mode="normal" in="SourceGraphic" in2="effect1_backgroundBlur_209_347" result="shape"/>
</filter>
<clipPath id="clip0_209_347">
<rect width="297" height="221" fill="white" transform="translate(23 40)"/>
</clipPath>
</defs>
</svg>
