<svg width="92" height="51" viewBox="0 0 92 51" fill="none" xmlns="http://www.w3.org/2000/svg">
<path d="M76.4937 37.9241C75.4981 37.3844 74.644 36.9871 73.8558 36.482C71.1806 34.7683 69.9664 32.298 70.3845 29.0737C70.6912 26.7092 71.1631 24.3765 72.1656 22.1998C72.5145 21.442 72.9648 20.7333 73.4093 19.9292C73.063 19.5519 72.6306 19.1239 72.2458 18.6554C70.0277 15.9568 69.5478 12.8464 70.2906 9.50006C70.593 8.13942 71.0555 6.8144 71.472 5.48182C71.5717 5.16284 71.7786 4.87894 71.9365 4.57886C72.0025 4.59505 72.069 4.6107 72.135 4.62689C72.1503 4.87301 72.2104 5.1256 72.1751 5.36362C71.7681 8.09624 73.0128 10.1326 74.8139 11.9304C76.8695 13.9819 79.3964 15.2881 81.9165 16.6072C84.1853 17.7951 86.4352 19.0224 88.2125 20.9525C90.4132 23.3424 91.5741 26.2196 91.8939 29.4564C92.3221 33.7904 91.4194 37.9036 89.813 41.8857C89.5153 42.624 89.1564 43.3375 88.8191 44.0591C88.7848 44.1325 88.7077 44.1849 88.5641 44.3403C87.2813 41.3092 84.6889 40.2136 81.8468 39.3711C81.6383 39.7333 81.4578 40.0808 81.2472 40.4085C79.2471 43.521 76.5522 45.4473 72.7932 45.4484C69.2243 45.4495 65.982 42.4643 65.5349 38.8362C65.4563 38.1967 65.4103 37.5479 65.2678 36.9229C65.1717 36.503 65.0033 36.0572 64.742 35.728C64.0305 34.832 62.9937 34.9022 62.4315 35.9023C62.0668 36.5505 61.8551 37.2878 61.5648 37.9808C60.9572 39.4294 60.4182 40.9142 59.7145 42.3126C58.6028 44.5228 56.636 45.7031 54.4278 46.489C51.8534 47.4054 49.1776 47.6677 46.4643 47.7239C42.0718 47.8151 37.7448 47.175 33.4109 46.5937C33.2932 46.578 33.1845 46.4949 33.0182 46.265C33.326 46.1263 33.6221 45.9126 33.943 45.8613C36.111 45.5148 38.2769 45.1262 40.4581 44.8952C44.8363 44.4316 49.1929 43.9156 53.3214 42.2084C55.5206 41.299 57.6236 40.219 59.194 38.3521C60.5813 36.7027 61.5009 34.7527 62.2494 32.7239C62.5952 31.7874 62.8955 30.8327 63.2724 29.9108C63.4883 29.383 63.7607 28.8578 64.1065 28.412C64.884 27.4108 65.9672 27.4394 66.767 28.4266C67.363 29.1617 67.5878 30.0366 67.6396 30.9638C67.7525 32.9797 68.3955 34.7467 69.9205 36.1004C71.7786 37.7492 73.9477 38.2442 76.4947 37.9241H76.4937ZM81.6315 31.3853C80.7969 28.9506 79.5886 27.0179 77.2881 26.0685C75.9647 25.5223 74.6086 25.538 73.2419 26.2547C75.1359 29.5416 78.2805 30.4845 81.6315 31.3853ZM89.5095 35.0981C88.904 31.6352 87.2101 28.8961 84.4261 26.7788C84.339 28.5847 84.2566 30.2967 84.1721 32.0465C86.1142 32.7212 88.0378 33.4773 89.5095 35.0981Z" fill="#1B6381"/>
<path d="M43.2574 33.1934C42.9286 33.0385 42.5759 32.9214 42.2756 32.7217C41.2431 32.0346 40.143 31.4188 39.2271 30.5925C37.4492 28.9895 36.9028 26.8403 37.2919 24.5244C37.6324 22.4966 38.1307 20.4845 38.7214 18.5167C39.0466 17.4351 39.7069 16.4587 40.2697 15.3275C40.1313 15.1736 39.9054 14.9162 39.6726 14.6652C37.3061 12.1091 36.3882 9.09311 37.0876 5.64481C37.417 4.02078 37.948 2.43831 38.4073 0.842887C38.4749 0.607567 38.6528 0.40571 38.9368 0.224363C38.9515 0.431617 39.0091 0.645887 38.9753 0.844506C38.6158 2.97102 39.3902 4.73052 40.6735 6.31461C42.3843 8.42763 44.612 9.83739 46.9362 11.13C49.015 12.2861 51.1355 13.3936 53.0892 14.7462C56.286 16.9585 58.0032 20.1871 58.5865 24.0624C59.1735 27.9619 58.5733 31.7308 57.3175 35.409C56.874 36.707 56.2907 37.9549 55.7623 39.2216C55.7074 39.3533 55.5902 39.4575 55.4303 39.669C54.0562 36.6822 51.5282 35.5229 48.8287 34.818C47.9233 35.9752 47.216 37.1215 46.2832 38.0234C44.0012 40.2298 41.3143 41.3557 38.1138 40.6351C35.0579 39.9475 32.6344 37.0141 32.3689 33.8109C32.3056 33.0461 32.1388 32.2716 31.8912 31.5478C31.6705 30.9028 31.1353 30.5391 30.4226 30.5207C29.7485 30.5034 29.3843 30.9384 29.1336 31.4776C28.8548 32.0778 28.6521 32.7141 28.3945 33.3251C27.741 34.8747 27.1588 36.4631 26.3918 37.9522C25.5524 39.5821 24.1092 40.6136 22.4955 41.3638C20.2483 42.4081 17.8602 42.827 15.4109 43.0078C10.425 43.3753 5.51104 42.6996 0.595446 42.0185C0.398547 41.9909 0.209039 41.9078 0.0158363 41.8501C0.0105575 41.7875 0.00527877 41.7248 0 41.6628C0.220125 41.5678 0.432859 41.4231 0.661958 41.3864C2.87271 41.0345 5.07818 40.6243 7.30054 40.3788C11.0865 39.9605 14.874 39.5692 18.5069 38.3208C20.9694 37.4745 23.3507 36.4382 25.308 34.6172C26.888 33.147 27.8593 31.2574 28.6817 29.2858C29.1673 28.1216 29.539 26.9072 30.0236 25.7425C30.3097 25.0538 30.6369 24.3538 31.0862 23.772C31.7582 22.9014 32.7595 22.9937 33.5017 23.8044C34.3506 24.7311 34.4329 25.9039 34.5184 27.0395C34.7781 30.4845 37.5389 33.072 40.9195 33.432C41.6786 33.5129 42.4535 33.4439 43.221 33.4439C43.2326 33.3607 43.2448 33.2776 43.2564 33.1945L43.2574 33.1934ZM40.1377 21.6978C40.976 23.9922 46.3371 27.1874 48.4254 26.6709C47.3179 22.3757 43.2052 19.8687 40.1377 21.6978ZM51.2368 22.1868C51.145 23.9749 51.0563 25.7128 50.9676 27.4383C51.9373 27.8636 52.9318 28.2074 53.834 28.7207C54.7282 29.2291 55.5295 29.9081 56.353 30.4986C56.6624 28.4546 53.7263 23.6128 51.2368 22.1868Z" fill="#EA8357"/>
<path d="M89.253 50.9989H4.63371V44.1029H5.27825C5.52424 44.9664 5.66571 45.8338 6.01094 46.6061C7.05033 48.9329 8.90476 50.0668 11.3763 50.1931C11.6149 50.2055 11.8551 50.1947 12.0942 50.1947C37.1837 50.1947 62.2726 50.1947 87.3621 50.1931C87.6815 50.1931 88.0008 50.1656 88.3968 50.1478V45.7388C88.7145 45.6848 88.9616 45.6427 89.2535 45.593V51L89.253 50.9989Z" fill="#1B6381"/>
<path d="M19.9617 13.3521C20.5935 12.8992 21.2212 12.4394 21.8589 11.9947C24.7896 9.95019 28.0292 8.75632 31.5491 8.35963C32.1509 8.29162 32.768 8.28299 33.3713 8.33156C34.2397 8.40173 34.9439 8.81839 35.4158 9.58966C36.0012 10.5466 35.6217 11.3751 34.5147 11.4819C33.6068 11.5694 32.692 11.5866 31.7803 11.6287C28.7382 11.7685 25.7002 11.9537 22.7304 12.7076C21.8314 12.9359 20.9504 13.2382 20.0609 13.507C20.0282 13.4557 19.9944 13.4034 19.9617 13.3521Z" fill="#1B6381"/>
<path d="M73.4536 6.50675C73.4784 6.20127 73.4958 5.98646 73.5175 5.71282H89.2535V20.0182C88.9304 19.7052 88.6755 19.4585 88.4052 19.1968C88.4052 17.0719 88.4031 14.9605 88.4052 12.8496C88.41 9.14115 85.8957 6.54993 82.2655 6.54022C79.5685 6.53266 76.8716 6.5413 74.1747 6.54022C73.9619 6.54022 73.7492 6.52133 73.4525 6.50729L73.4536 6.50675Z" fill="#1B6381"/>
<path d="M17.9721 13.5032C18.2123 12.4826 18.434 11.4571 18.6958 10.4424C19.4956 7.34656 20.877 4.54432 22.8407 2.05025C23.2477 1.53319 23.707 1.0523 24.1842 0.60163C24.6857 0.128292 25.3091 -0.0611514 25.9953 0.0171086C27.0801 0.141785 27.4876 1.03179 26.8389 1.92881C26.4525 2.46314 25.9948 2.94511 25.5545 3.43626C23.3475 5.89632 21.1895 8.39687 19.4507 11.238C19.0706 11.8587 18.7502 12.5177 18.3986 13.1572C18.321 13.2981 18.2292 13.4303 18.1442 13.5669C18.0872 13.5458 18.0291 13.5248 17.9721 13.5032Z" fill="#1B6381"/>
<path d="M19.0363 13.2058C19.4702 12.5333 19.8994 11.8576 20.3386 11.1889C22.1344 8.45462 24.3927 6.20613 27.1936 4.574C27.8276 4.20483 28.5962 4.00189 29.3262 3.9042C29.9924 3.81515 30.5847 4.32141 30.6676 4.83307C30.7747 5.49693 30.3656 5.85207 29.871 6.14676C27.5832 7.5101 25.2573 8.81246 23.025 10.2649C21.7702 11.0815 20.6711 12.1474 19.5019 13.1006C19.4048 13.1799 19.3055 13.256 19.2079 13.3337C19.1509 13.2905 19.0933 13.2479 19.0363 13.2047V13.2058Z" fill="#1B6381"/>
<path d="M42.7343 6.50243C42.5569 6.31245 42.3743 6.12409 42.2012 5.92655C42.1647 5.88499 42.1647 5.81105 42.1325 5.69879H69.8756C69.7933 5.99078 69.7257 6.23149 69.6497 6.50243H42.7343Z" fill="#1B6381"/>
<path d="M0.0554271 22.1436C0.955986 21.3044 2.02969 20.8413 3.13981 20.4737C6.68451 19.3015 10.3591 18.9442 14.0521 18.7315C14.3118 18.7164 14.6153 18.8055 14.8386 18.9452C15.4457 19.3263 16.0211 19.7613 16.7031 20.2411C15.5143 20.7663 14.4918 21.2655 13.188 21.123C8.95861 20.6605 4.7736 21.0588 0.649289 22.1194C0.502539 22.1571 0.353678 22.189 0.204289 22.2143C0.173144 22.2197 0.134081 22.1825 0.0554271 22.1436Z" fill="#1B6381"/>
<path d="M20.4357 13.6101C21.5316 13.3726 22.6195 13.0876 23.7244 12.9063C26.5258 12.447 29.3162 12.522 32.0648 13.2841C32.5584 13.4212 33.0583 13.6403 33.4743 13.9398C34.1093 14.397 34.3337 15.24 34.0676 15.7582C33.8232 16.2342 33.2932 16.3637 32.4328 16.1392C30.3487 15.5952 28.2847 14.9513 26.178 14.526C24.4592 14.1789 22.6913 14.0893 20.9446 13.8859C20.7831 13.867 20.6215 13.8502 20.4595 13.8324C20.451 13.7585 20.4431 13.6845 20.4347 13.6106L20.4357 13.6101Z" fill="#1B6381"/>
<path d="M20.8607 14.1644C21.8879 14.2178 22.9173 14.2405 23.9413 14.3301C26.9286 14.5913 29.7269 15.4721 32.2834 17.0956C32.9559 17.5225 33.4563 18.0779 33.4495 18.9674C33.4426 19.8957 32.8635 20.3302 32.029 19.9378C31.3411 19.6145 30.6929 19.2 30.0426 18.7995C27.1725 17.0314 24.2454 15.389 20.9942 14.4499C20.9377 14.4337 20.8913 14.3792 20.8401 14.343C20.8469 14.2836 20.8538 14.2237 20.8607 14.1644Z" fill="#1B6381"/>
<path d="M15.7413 5.70958C15.6948 6.00535 15.6579 6.23851 15.6093 6.54561H5.46195V18.3596C5.15683 18.4438 4.93724 18.5048 4.63951 18.5869V5.70958H15.7413Z" fill="#1B6381"/>
<path d="M16.9702 14.6118C16.8921 13.6781 16.796 12.7454 16.7395 11.8106C16.5785 9.15086 16.8625 6.53266 17.5303 3.96141C17.6849 3.3661 17.9051 2.77294 18.1943 2.23484C18.3569 1.93205 18.6879 1.66057 19.0046 1.52186C19.5974 1.26279 20.1227 1.6325 20.1206 2.29313C20.119 2.7044 20.0102 3.12376 19.9004 3.52532C19.1266 6.36696 18.3179 9.1989 17.572 12.0486C17.3556 12.876 17.308 13.7499 17.1829 14.6026C17.1117 14.6059 17.0409 14.6091 16.9697 14.6129L16.9702 14.6118Z" fill="#1B6381"/>
<path d="M21.3505 15.2821C21.2571 15.165 21.1642 15.0479 21.0544 14.9103C21.1457 14.8822 21.2133 14.8347 21.2613 14.8503C24.5194 15.8942 27.4597 17.4945 29.8425 20.0441C30.118 20.3388 30.3434 20.7193 30.4807 21.102C30.6533 21.5823 30.6032 22.0945 30.1249 22.4027C29.6398 22.7158 29.2391 22.4162 28.9081 22.0875C28.177 21.361 27.4871 20.5919 26.757 19.8644C25.9035 19.0132 25.0293 18.1821 24.1541 17.3541C23.9831 17.1928 23.764 17.0848 23.5666 16.952C22.8275 16.3956 22.0896 15.8386 21.3505 15.2821Z" fill="#1B6381"/>
<path d="M68.9946 18.8718C68.4425 18.5502 67.9489 18.2625 67.2716 17.8679C67.0832 18.433 66.8731 18.8357 66.8208 19.2588C66.6239 20.844 66.4798 22.4356 66.3114 24.0246C66.2961 24.1671 66.2454 24.3058 66.2111 24.4461C66.1494 24.4645 66.0876 24.4823 66.0258 24.5006C65.83 24.057 65.5803 23.629 65.4483 23.1659C65.0107 21.6304 64.136 20.4764 62.7256 19.7732C62.1243 19.4736 61.8567 18.989 62.0662 18.3661C62.1882 18.0045 62.4722 17.6062 62.7915 17.4313C63.2154 17.1992 63.5501 17.5657 63.8114 17.9219C64.6993 19.1336 65.4864 20.3998 65.9857 21.9045C66.0163 21.7378 66.0538 21.5721 66.076 21.4037C66.2312 20.239 66.3489 19.0678 66.549 17.9117C66.663 17.2548 67.0257 16.7248 67.6881 16.5154C68.7877 16.8641 69.0896 17.393 68.9946 18.8718Z" fill="#EA8357"/>
<path d="M13.0491 31.7054C13.6942 29.75 12.9462 27.5382 14.6993 26.1867C15.9018 26.4998 16.3082 27.189 16.1092 28.4876C15.5819 28.2118 15.0688 27.9435 14.4501 27.6197C14.2738 28.052 14.0843 28.3354 14.0468 28.6376C13.8541 30.1996 13.7037 31.7669 13.5295 33.3316C13.4999 33.5988 13.4266 33.8611 13.3738 34.1255C13.303 34.1369 13.2318 34.1482 13.161 34.1595C12.9921 33.7715 12.7789 33.3969 12.6617 32.9926C12.2066 31.428 11.3488 30.2195 9.89612 29.4677C9.10166 29.057 8.93855 28.3494 9.38566 27.5749C9.77048 26.9083 10.3554 26.7923 10.784 27.4297C11.4919 28.4816 12.0858 29.6151 12.7081 30.7253C12.8438 30.9671 12.8966 31.2574 13.0491 31.7054Z" fill="#EA8357"/>
<path d="M21.9676 31.0615C21.5263 31.5025 21.2043 31.9278 20.7899 32.2133C20.2673 32.5727 19.4486 32.2624 19.3678 31.6611C19.1725 30.2104 19.0659 28.7472 18.9292 27.2883C18.9244 27.2365 18.9819 27.1782 19.0759 26.9963C19.1767 27.2187 19.2739 27.3487 19.2929 27.4896C19.3884 28.1934 19.4766 28.8994 19.542 29.607C19.6312 30.5671 19.9443 31.0119 20.4969 30.9174C21.1056 30.8132 21.6113 29.8784 21.4455 29.1633C21.3057 28.5588 21.1531 27.957 21.0338 27.3482C21 27.175 21.0628 26.9812 21.0813 26.7972C21.1515 26.7788 21.2217 26.761 21.2919 26.7426C21.4577 27.1264 21.6261 27.509 21.7881 27.895C22.0114 28.4255 22.1909 28.9793 22.4596 29.4839C22.8075 30.137 23.3074 30.3296 24.0981 30.1316C23.8352 29.5152 23.5655 28.922 23.328 28.3165C23.0904 27.7104 22.9521 27.0929 23.3739 26.4005C23.4758 26.5759 23.5676 26.6865 23.6109 26.8144C23.9366 27.7794 24.2713 28.7423 24.5621 29.7187C24.6545 30.029 24.6651 30.3804 24.6413 30.708C24.5669 31.7178 23.5576 32.2192 22.7309 31.6649C22.4453 31.4733 22.1877 31.2369 21.9676 31.0615Z" fill="#EA8357"/>
<path d="M21.3505 15.2821C22.0896 15.8386 22.8275 16.3956 23.5666 16.952C24.494 18.0331 25.45 19.091 26.3358 20.2066C26.7127 20.681 26.9872 21.2574 27.2232 21.8247C27.3488 22.1269 27.3931 22.5457 27.2881 22.8431C27.1889 23.1243 26.8721 23.4503 26.6024 23.5043C26.3801 23.5491 25.9837 23.29 25.8428 23.0542C25.1428 21.8808 24.5463 20.6421 23.8294 19.4806C22.9643 18.079 22.0141 16.7324 21.0866 15.3404C21.1288 15.3312 21.2397 15.3064 21.3505 15.2821Z" fill="#1B6381"/>
<path d="M64.3108 11.9585C63.5021 11.2342 62.6944 10.6297 63.255 9.53083C63.6177 8.82001 64.2015 8.40065 64.9316 8.20257C65.6848 8.55501 65.5645 9.21293 65.4874 9.77964C65.3987 10.4278 65.356 11.0199 65.9023 11.4819C65.8374 11.8441 65.7799 12.1641 65.7065 12.5754C65.357 12.3903 65.0804 12.2435 64.7341 12.0594C63.1083 14.0375 61.0142 15.2341 58.5421 15.7706C60.4103 14.5362 62.2779 13.3013 64.3108 11.9585ZM64.6264 10.505C64.7051 10.4559 64.7838 10.4063 64.8624 10.3571C64.788 10.0706 64.7141 9.78396 64.6127 9.3932C64.2717 9.53137 64.0426 9.6242 63.6325 9.79043C64.0701 10.1051 64.3477 10.3048 64.6264 10.505Z" fill="#EA8357"/>
<path d="M82.9871 43.2112C83.6501 43.5637 84.3511 43.8584 84.9661 44.2831C85.6391 44.7484 85.7431 45.4927 85.5304 46.2558C85.3055 47.0622 84.5148 47.7163 83.7836 47.766C83.2494 47.8021 82.5426 47.1669 82.5305 46.4561C82.5125 45.4273 82.6366 44.3954 82.6999 43.3651L82.9871 43.2112ZM84.9165 46.0448C84.1959 45.5067 83.5809 45.0479 82.8662 44.5147C82.9496 46.1835 83.4289 46.543 84.9165 46.0448Z" fill="#EA8357"/>
<path d="M61.8187 46.5613C62.5213 46.1268 63.1014 45.7685 63.6821 45.4095L63.6372 45.1866C62.9087 45.1289 62.1802 45.0711 61.4439 45.0123C61.6313 44.0689 62.7482 43.255 63.879 43.1848C64.136 43.1686 64.4047 43.1751 64.6544 43.2328C65.4584 43.4196 65.6917 43.9544 65.3301 44.7225C64.7135 46.0313 63.4403 46.7346 61.8187 46.5613Z" fill="#EA8357"/>
<path d="M30.4269 36.5721C30.3424 37.0573 30.259 37.5425 30.1735 38.0272C30.07 38.6155 29.9423 39.2006 29.8668 39.7932C29.7892 40.4025 30.0373 40.8629 30.7008 41.2294C31.0424 40.891 31.3997 40.5369 31.7856 40.1542C31.9598 41.0874 31.8199 41.9693 31.2345 42.7304C30.7657 43.3402 29.8757 43.221 29.5923 42.4761C29.378 41.9132 29.2724 41.2769 29.2581 40.6697C29.2238 39.2038 29.8018 37.8825 30.2574 36.5375L30.4269 36.5721Z" fill="#EA8357"/>
<path d="M84.1685 8.18638C83.9911 9.0861 83.8486 9.99499 83.6263 10.8834C83.4347 11.6487 83.6121 12.2284 84.2508 12.6969C84.9819 12.7114 85.1165 12.0001 85.5531 11.5364C85.7225 12.5867 85.5668 13.5048 84.9465 14.2988C84.4651 14.9146 83.5783 14.7483 83.2869 13.9355C83.0752 13.3456 82.9623 12.6801 82.9749 12.0519C83.0024 10.6702 83.5461 9.41587 83.9805 8.13996C84.0434 8.15561 84.1056 8.17072 84.1685 8.18638Z" fill="#EA8357"/>
<path d="M21.2159 18.7153C21.2112 19.3646 20.6437 19.9248 19.9944 19.9211C19.3657 19.9173 18.8394 19.3813 18.8283 18.7342C18.8167 18.0531 19.3456 17.4982 20.0087 17.4955C20.6627 17.4928 21.2207 18.0569 21.2159 18.7153Z" fill="#1B6381"/>
</svg>
